<svg width="362" height="343" viewBox="0 0 362 343" fill="none" xmlns="http://www.w3.org/2000/svg">
<path d="M324.424 104.064L186.672 246.063H128.662H128.509C127.464 246.063 126.418 246.063 125.372 246.063C117.647 246.066 110.078 243.883 103.539 239.765C96.9988 235.648 91.7538 229.765 88.4081 222.792L87.5408 220.902C85.4252 215.855 84.3326 210.437 84.3265 204.963C84.3204 199.441 85.4317 193.976 87.5932 188.896C89.7547 183.817 92.9216 179.228 96.9028 175.408L282.971 -16.5808C284.13 -17.7731 285.562 -18.6638 287.143 -19.1757C288.724 -19.6877 290.406 -19.8052 292.043 -19.5182C293.679 -19.2312 295.221 -18.5484 296.534 -17.529C297.848 -16.5096 298.892 -15.1845 299.578 -13.6688L332.307 58.9273C335.647 66.3783 336.681 74.6605 335.276 82.7057C333.871 90.7509 330.091 98.1901 324.424 104.064Z" fill="white" stroke="#E2E2E2" stroke-miterlimit="10"/>
<path d="M350.521 362.723H177.769C169.921 362.718 162.242 360.448 155.65 356.185C149.058 351.922 143.833 345.846 140.601 338.686L88.357 222.792C91.7121 229.784 96.9769 235.681 103.542 239.8C110.106 243.918 117.702 246.09 125.448 246.063C126.494 246.063 127.54 246.063 128.586 246.063H128.79H300.675C304.602 246.064 308.445 247.2 311.744 249.334C315.042 251.468 317.656 254.51 319.271 258.094L359.934 348.316C360.636 349.88 360.934 351.596 360.8 353.306C360.665 355.016 360.104 356.665 359.166 358.1C358.228 359.535 356.945 360.711 355.434 361.519C353.923 362.327 352.233 362.741 350.521 362.723Z" fill="white" stroke="#E2E2E2" stroke-miterlimit="10"/>
<path d="M139.147 335.467L88.357 222.792C91.706 229.791 96.9687 235.695 103.534 239.818C110.099 243.942 117.698 246.116 125.448 246.089C126.469 246.089 127.566 246.089 128.586 246.089H128.764H186.672L150.116 283.843L146.621 287.47L145.907 288.236C140.64 294.771 137.228 302.605 136.029 310.916C134.831 319.227 135.89 327.708 139.096 335.467H139.147Z" fill="white" stroke="#E2E2E2" stroke-miterlimit="10"/>
<path d="M241.424 104.064L103.672 246.063H45.6625H45.5094C44.4635 246.063 43.4176 246.063 42.3717 246.063C34.6468 246.066 27.0784 243.883 20.5386 239.765C13.9988 235.648 8.75382 229.765 5.40812 222.792L4.5408 220.902C2.4252 215.855 1.33259 210.437 1.32655 204.963C1.32044 199.441 2.43169 193.976 4.59319 188.896C6.75469 183.817 9.9216 179.228 13.9028 175.408L199.971 -16.5808C201.13 -17.7731 202.562 -18.6638 204.143 -19.1757C205.724 -19.6877 207.406 -19.8052 209.043 -19.5182C210.679 -19.2312 212.221 -18.5484 213.534 -17.529C214.848 -16.5096 215.892 -15.1845 216.578 -13.6688L249.307 58.9273C252.647 66.3783 253.681 74.6605 252.276 82.7057C250.871 90.7509 247.091 98.1901 241.424 104.064Z" fill="white" stroke="#E2E2E2" stroke-miterlimit="10"/>
<path d="M267.521 362.723H94.7687C86.9215 362.718 79.2419 360.448 72.6499 356.185C66.058 351.922 60.8331 345.846 57.601 338.686L5.35703 222.792C8.71208 229.784 13.9769 235.681 20.5415 239.8C27.1061 243.918 34.7016 246.09 42.4482 246.063C43.4941 246.063 44.54 246.063 45.5859 246.063H45.79H217.675C221.602 246.064 225.445 247.2 228.744 249.334C232.042 251.468 234.656 254.51 236.271 258.094L276.934 348.316C277.636 349.88 277.934 351.596 277.8 353.306C277.665 355.016 277.104 356.665 276.166 358.1C275.228 359.535 273.945 360.711 272.434 361.519C270.923 362.327 269.233 362.741 267.521 362.723Z" fill="white" stroke="#E2E2E2" stroke-miterlimit="10"/>
<path d="M56.1469 335.467L5.35703 222.792C8.70598 229.791 13.9687 235.695 20.5341 239.818C27.0995 243.942 34.6982 246.116 42.4482 246.089C43.4686 246.089 44.5655 246.089 45.5859 246.089H45.7644H103.672L67.1162 283.843L63.6213 287.47L62.907 288.236C57.6398 294.771 54.2277 302.605 53.0292 310.916C51.8307 319.227 52.89 327.708 56.0959 335.467H56.1469Z" fill="white" stroke="#E2E2E2" stroke-miterlimit="10"/>
</svg>
