<svg width="531" height="343" viewBox="0 0 531 343" fill="none" xmlns="http://www.w3.org/2000/svg">
<path d="M504.026 105.09L365.492 248.144H306.99V248.015H306.836C305.782 248.015 304.729 248.015 303.701 248.015C295.92 248.019 288.297 245.823 281.707 241.679C275.116 237.535 269.827 231.611 266.447 224.589L265.573 222.658C262.354 214.954 261.532 206.455 263.215 198.274C264.897 190.093 269.006 182.612 275.003 176.81L462.302 -16.5979C463.469 -17.7994 464.911 -18.6972 466.504 -19.2131C468.096 -19.729 469.79 -19.8474 471.438 -19.5582C473.087 -19.269 474.64 -18.5808 475.962 -17.5535C477.285 -16.5261 478.337 -15.1907 479.027 -13.6632L511.991 59.4987C515.375 67.0229 516.424 75.392 515.004 83.5211C513.584 91.6503 509.76 99.1645 504.026 105.09Z" fill="#1D1D1B" stroke="#444443" stroke-miterlimit="10"/>
<path d="M530.413 365.713H356.448C348.54 365.713 340.8 363.428 334.156 359.131C327.512 354.834 322.245 348.709 318.988 341.489L266.37 224.718C269.75 231.74 275.039 237.663 281.629 241.807C288.22 245.951 295.843 248.148 303.624 248.144C304.652 248.144 305.705 248.144 306.759 248.144H306.99H480.106C484.057 248.15 487.923 249.297 491.24 251.447C494.557 253.598 497.186 256.661 498.811 260.269L539.919 351.194C540.627 352.772 540.927 354.504 540.791 356.229C540.654 357.955 540.086 359.618 539.139 361.065C538.191 362.512 536.895 363.696 535.37 364.509C533.845 365.321 532.14 365.735 530.413 365.713Z" fill="#1D1D1B" stroke="#444443" stroke-miterlimit="10"/>
<path d="M317.524 338.245L266.37 224.692C269.738 231.727 275.023 237.665 281.615 241.819C288.207 245.973 295.837 248.175 303.624 248.17C304.652 248.17 305.731 248.17 306.759 248.17H306.938H365.44L328.7 286.218L325.18 289.874L324.461 290.646C319.171 297.239 315.743 305.133 314.537 313.506C313.33 321.878 314.388 330.422 317.601 338.245H317.524Z" fill="#1D1D1B" stroke="#444443" stroke-miterlimit="10"/>
<path d="M413.026 105.09L274.492 248.144H215.99V248.015H215.836C214.782 248.015 213.729 248.015 212.701 248.015C204.92 248.019 197.297 245.823 190.707 241.679C184.116 237.535 178.827 231.611 175.447 224.589L174.573 222.658C171.354 214.954 170.532 206.455 172.215 198.274C173.897 190.093 178.006 182.612 184.003 176.81L371.302 -16.5979C372.469 -17.7994 373.911 -18.6972 375.504 -19.2131C377.096 -19.729 378.79 -19.8474 380.438 -19.5582C382.087 -19.269 383.64 -18.5808 384.962 -17.5535C386.285 -16.5261 387.337 -15.1907 388.027 -13.6632L420.991 59.4987C424.375 67.0229 425.424 75.392 424.004 83.5211C422.584 91.6503 418.76 99.1645 413.026 105.09Z" fill="#1D1D1B" stroke="#444443" stroke-miterlimit="10"/>
<path d="M439.413 365.713H265.448C257.54 365.713 249.8 363.428 243.156 359.131C236.512 354.834 231.245 348.709 227.988 341.489L175.37 224.718C178.75 231.74 184.039 237.663 190.629 241.807C197.22 245.951 204.843 248.148 212.624 248.144C213.652 248.144 214.705 248.144 215.758 248.144H215.99H389.106C393.057 248.15 396.923 249.297 400.24 251.447C403.557 253.598 406.186 256.661 407.811 260.269L448.919 351.194C449.627 352.772 449.927 354.504 449.791 356.229C449.654 357.955 449.086 359.618 448.139 361.065C447.191 362.512 445.895 363.696 444.37 364.509C442.845 365.321 441.14 365.735 439.413 365.713Z" fill="#1D1D1B" stroke="#444443" stroke-miterlimit="10"/>
<path d="M226.524 338.245L175.37 224.692C178.738 231.727 184.023 237.665 190.615 241.819C197.207 245.973 204.837 248.175 212.624 248.17C213.652 248.17 214.731 248.17 215.758 248.17H215.938H274.44L237.7 286.218L234.18 289.874L233.461 290.646C228.171 297.239 224.743 305.133 223.537 313.506C222.33 321.878 223.388 330.422 226.601 338.245H226.524Z" fill="#1D1D1B" stroke="#444443" stroke-miterlimit="10"/>
<path d="M328.026 105.09L189.492 248.144H130.99V248.015H130.836C129.782 248.015 128.729 248.015 127.701 248.015C119.921 248.019 112.297 245.823 105.707 241.679C99.1163 237.535 93.827 231.611 90.4468 224.589L89.5733 222.658C86.3542 214.954 85.5321 206.455 87.2146 198.274C88.897 190.093 93.0057 182.612 99.0025 176.81L286.302 -16.5979C287.469 -17.7994 288.911 -18.6972 290.504 -19.2131C292.096 -19.729 293.79 -19.8474 295.438 -19.5582C297.087 -19.269 298.64 -18.5808 299.962 -17.5535C301.285 -16.5261 302.337 -15.1907 303.027 -13.6632L335.991 59.4987C339.375 67.0229 340.424 75.392 339.004 83.5211C337.584 91.6503 333.76 99.1645 328.026 105.09Z" fill="#1D1D1B" stroke="#444443" stroke-miterlimit="10"/>
<path d="M354.413 365.713H180.448C172.54 365.713 164.8 363.428 158.156 359.131C151.512 354.834 146.245 348.709 142.988 341.489L90.3697 224.718C93.7499 231.74 99.0391 237.663 105.629 241.807C112.22 245.951 119.843 248.148 127.624 248.144C128.652 248.144 129.705 248.144 130.758 248.144H130.99H304.106C308.057 248.15 311.923 249.297 315.24 251.447C318.557 253.598 321.186 256.661 322.811 260.269L363.919 351.194C364.627 352.772 364.927 354.504 364.791 356.229C364.654 357.955 364.086 359.618 363.139 361.065C362.191 362.512 360.895 363.696 359.37 364.509C357.845 365.321 356.14 365.735 354.413 365.713Z" fill="#1D1D1B" stroke="#444443" stroke-miterlimit="10"/>
<path d="M141.524 338.245L90.3697 224.692C93.7376 231.727 99.0227 237.665 105.615 241.819C112.207 245.973 119.837 248.175 127.624 248.17C128.652 248.17 129.731 248.17 130.758 248.17H130.938H189.44L152.7 286.218L149.18 289.874L148.461 290.646C143.171 297.239 139.743 305.133 138.537 313.506C137.33 321.878 138.388 330.422 141.601 338.245H141.524Z" fill="#1D1D1B" stroke="#444443" stroke-miterlimit="10"/>
<path d="M243.026 105.09L104.492 248.144H45.9898V248.015H45.8356C44.7822 248.015 43.7288 248.015 42.7011 248.015C34.9205 248.019 27.2968 245.823 20.7065 241.679C14.1163 237.535 8.82697 231.611 5.44684 224.589L4.5733 222.658C1.35422 214.954 0.532107 206.455 2.21456 198.274C3.89701 190.093 8.00566 182.612 14.0025 176.81L201.302 -16.5979C202.469 -17.7994 203.911 -18.6972 205.504 -19.2131C207.096 -19.729 208.79 -19.8474 210.438 -19.5582C212.087 -19.269 213.64 -18.5808 214.962 -17.5535C216.285 -16.5261 217.337 -15.1907 218.027 -13.6632L250.991 59.4987C254.375 67.0229 255.424 75.392 254.004 83.5211C252.584 91.6503 248.76 99.1645 243.026 105.09Z" fill="#1D1D1B" stroke="#444443" stroke-miterlimit="10"/>
<path d="M269.413 365.713H95.448C87.5401 365.713 79.8001 363.428 73.1558 359.131C66.5116 354.834 61.2453 348.709 57.9882 341.489L5.36972 224.718C8.74986 231.74 14.0391 237.663 20.6294 241.807C27.2197 245.951 34.8434 248.148 42.624 248.144C43.6517 248.144 44.7051 248.144 45.7585 248.144H45.9897H219.106C223.057 248.15 226.923 249.297 230.24 251.447C233.557 253.598 236.186 256.661 237.811 260.269L278.919 351.194C279.627 352.772 279.927 354.504 279.791 356.229C279.654 357.955 279.086 359.618 278.139 361.065C277.191 362.512 275.895 363.696 274.37 364.509C272.845 365.321 271.14 365.735 269.413 365.713Z" fill="#1D1D1B" stroke="#444443" stroke-miterlimit="10"/>
<path d="M56.5237 338.245L5.36972 224.692C8.73764 231.727 14.0227 237.665 20.6146 241.819C27.2065 245.973 34.8366 248.175 42.624 248.17C43.6517 248.17 44.7308 248.17 45.7585 248.17H45.9384H104.44L67.7 286.218L64.1801 289.874L63.4607 290.646C58.1707 297.239 54.7435 305.133 53.5368 313.506C52.3302 321.878 53.3883 330.422 56.6008 338.245H56.5237Z" fill="#1D1D1B" stroke="#444443" stroke-miterlimit="10"/>
</svg>
