<svg width="128" height="55" viewBox="0 0 128 55" fill="none" xmlns="http://www.w3.org/2000/svg">
<path d="M34.8924 17.7727L15.0665 38.093H6.69008L6.68087 38.0747C6.67165 38.0793 6.66705 38.0793 6.66244 38.0793C6.51039 38.0885 6.36295 38.093 6.21091 38.093C3.8611 38.093 1.83382 36.7323 0.88007 34.7621L0.755668 34.4872C0.460791 33.7861 0.294922 33.0164 0.294922 32.21C0.294922 30.5514 0.990649 29.044 2.10566 27.9764L2.10105 27.9718L28.9165 0.490165C29.6399 -0.252088 30.8839 -0.0321611 31.3124 0.907109L36.0304 11.2941C37.021 13.4842 36.5695 16.05 34.8924 17.7727Z" fill="#00B7FF"/>
<path d="M38.6706 54.7936H13.7718C11.4589 54.7936 9.36247 53.4466 8.41333 51.3527L0.880127 34.762C1.83387 36.7321 3.86116 38.0929 6.21097 38.0929C6.36301 38.0929 6.51045 38.0884 6.6625 38.0792L6.69475 38.0929H31.4691C32.6256 38.0929 33.6715 38.7665 34.146 39.8111L40.0067 52.7272C40.449 53.6986 39.7395 54.7936 38.6706 54.7936Z" fill="#00B7FF"/>
<path d="M8.20139 50.8899L0.880127 34.762C1.83387 36.7367 3.86116 38.0975 6.21096 38.0975C6.3584 38.0975 6.51506 38.0884 6.6625 38.0792L6.69014 38.0975H15.0619L9.79097 43.4995L9.28875 44.0172L9.18278 44.1272C8.24746 45.2543 7.68996 46.6976 7.68996 48.2737C7.69457 49.1992 7.85122 50.0927 8.20139 50.8899Z" fill="#0061E7"/>
<path d="M58.3351 15.5278H54.9348V39.3166H70.0104V36.3063H58.3351V15.5278Z" fill="white"/>
<path d="M74.6502 19.6285C75.6783 19.6285 76.5116 18.8326 76.5116 17.8507C76.5116 16.8689 75.6783 16.073 74.6502 16.073C73.6222 16.073 72.7888 16.8689 72.7888 17.8507C72.7888 18.8326 73.6222 19.6285 74.6502 19.6285Z" fill="white"/>
<path d="M76.3088 21.9011H72.9822V39.3166H76.3088V21.9011Z" fill="white"/>
<path d="M89.0208 21.4796H89.0162C87.3022 21.4796 85.8554 21.8186 83.6623 23.4314V14.3274H80.3357V39.3166H83.4596L83.4964 37.9649C85.2334 39.367 87.21 39.7014 88.6936 39.7014C93.8263 39.7014 97.0193 36.2055 97.0193 30.5791C97.0193 27.7796 96.3512 25.562 95.0289 23.9858C93.6282 22.3226 91.6102 21.4796 89.0208 21.4796ZM83.6623 26.9228C86.0121 24.8014 87.0672 24.4486 88.6107 24.4486C92.0294 24.4486 93.6881 26.4554 93.6881 30.5836C93.6881 34.5011 91.6977 36.7462 88.2237 36.7462C86.2701 36.7462 84.7727 35.9673 83.6623 34.3636V26.9228Z" fill="white"/>
<path d="M103.304 23.6009L103.258 21.9011H100.134V39.3165H103.461V27.2389C104.7 25.4474 106.446 24.4669 108.395 24.4669L109.593 24.476V21.4979L108.63 21.4841C106.686 21.4979 104.82 22.2493 103.304 23.6009Z" fill="white"/>
<path d="M119.297 21.4521C113.92 21.4521 110.446 25.026 110.446 30.5608C110.446 36.1139 113.998 39.6969 119.49 39.6969C121.973 39.6969 124.231 39.0646 126.014 37.8733L126.682 37.4243L125.001 35.3121L124.448 35.6145C122.996 36.4117 121.287 36.8195 119.495 36.7783C116.504 36.7554 114.459 35.1059 113.892 32.3202H127.387L127.502 31.7154C127.631 31.0419 127.705 30.2126 127.705 29.4978C127.705 24.3891 124.641 21.4521 119.297 21.4521ZM124.494 29.1817C124.494 29.3558 124.489 29.5345 124.475 29.7131H113.781C113.989 26.3501 116.039 24.3524 119.333 24.3524C122.853 24.3524 124.494 25.8873 124.494 29.1817Z" fill="white"/>
<path d="M57.6992 45.2195C60.7632 45.2195 62.5463 47.1576 62.5463 50.0029C62.5463 52.8757 60.7908 54.8 57.6992 54.8H54.6353V45.2241H57.6992V45.2195ZM57.6992 54.1082C60.2794 54.1082 61.7308 52.5458 61.7308 50.0029C61.7308 47.4921 60.2564 45.9068 57.6992 45.9068H55.4508V54.1082H57.6992Z" fill="white"/>
<path d="M70.5079 54.2303C69.7753 54.7205 68.8677 54.9588 67.8863 54.9588C65.6194 54.9588 64.3247 53.4422 64.3247 51.3529C64.3247 49.3277 65.5365 47.7607 67.8033 47.7607C69.8951 47.7607 71.0931 48.8375 71.0931 50.8993C71.0931 51.1375 71.07 51.4812 71.0101 51.7927H65.1126C65.26 53.3414 66.2783 54.331 67.8863 54.3448C68.6557 54.3585 69.462 54.1936 70.1716 53.8041L70.5079 54.2303ZM70.319 51.3071C70.3467 51.1146 70.3559 50.9176 70.3559 50.7618C70.3559 49.0803 69.4159 48.3701 67.8218 48.3701C66.0801 48.3701 65.1402 49.5522 65.1126 51.1559V51.3071H70.319Z" fill="white"/>
<path d="M73.9405 45.8961V49.6669H78.4696V50.3496H73.9405V54.7893H73.1204V45.2134H78.9027V45.8961H73.9405Z" fill="white"/>
<path d="M81.8839 45.8962C81.8839 46.1436 81.6673 46.3406 81.4047 46.3406C81.1375 46.3406 80.9255 46.139 80.9255 45.8962C80.9255 45.6488 81.1421 45.4517 81.4047 45.4517C81.6719 45.4472 81.8839 45.6488 81.8839 45.8962ZM81.0085 54.794V47.9534H81.7963V54.794H81.0085Z" fill="white"/>
</svg>
