<svg width="129" height="55" viewBox="0 0 129 55" fill="none" xmlns="http://www.w3.org/2000/svg">
<path d="M35.1649 17.7728L15.1841 38.0931H6.74231L6.73302 38.0748C6.72373 38.0794 6.71909 38.0794 6.71444 38.0794C6.56121 38.0886 6.41262 38.0931 6.25938 38.0931C3.89122 38.0931 1.8481 36.7323 0.8869 34.7622L0.761526 34.4873C0.464345 33.7862 0.29718 33.0165 0.29718 32.2101C0.29718 30.5515 0.998343 29.0441 2.12206 27.9765L2.11742 27.9719L29.1424 0.490256C29.8714 -0.251996 31.1251 -0.0320695 31.557 0.907201L36.3119 11.2942C37.3102 13.4843 36.8552 16.0501 35.1649 17.7728Z" fill="#00B7FF"/>
<path d="M38.9726 54.7938H13.8793C11.5483 54.7938 9.43552 53.4468 8.47896 51.3529L0.886902 34.7621C1.8481 36.7323 3.89122 38.0931 6.25939 38.0931C6.41262 38.0931 6.56121 38.0885 6.71445 38.0794L6.74695 38.0931H31.7148C32.8804 38.0931 33.9344 38.7666 34.4127 39.8113L40.3192 52.7274C40.765 53.6988 40.0499 54.7938 38.9726 54.7938Z" fill="#00B7FF"/>
<path d="M8.26536 50.8901L0.886902 34.7621C1.8481 36.7369 3.89122 38.0977 6.25939 38.0977C6.40798 38.0977 6.56585 38.0885 6.71445 38.0794L6.74231 38.0977H15.1795L9.86736 43.4997L9.36122 44.0174L9.25442 44.1274C8.3118 45.2545 7.74994 46.6978 7.74994 48.2739C7.75458 49.1994 7.91246 50.0929 8.26536 50.8901Z" fill="#0061E7"/>
<path d="M58.7909 15.5277H55.364V39.3165H70.5574V36.3062H58.7909V15.5277Z" fill="#1D1D1B"/>
<path d="M75.2334 19.6284C76.2694 19.6284 77.1093 18.8325 77.1093 17.8507C77.1093 16.8689 76.2694 16.073 75.2334 16.073C74.1973 16.073 73.3574 16.8689 73.3574 17.8507C73.3574 18.8325 74.1973 19.6284 75.2334 19.6284Z" fill="#1D1D1B"/>
<path d="M76.905 21.901H73.5524V39.3165H76.905V21.901Z" fill="#1D1D1B"/>
<path d="M89.7164 21.4795H89.7117C87.9844 21.4795 86.5263 21.8186 84.316 23.4313V14.3273H80.9634V39.3165H84.1117L84.1489 37.9648C85.8994 39.3669 87.8915 39.7013 89.3867 39.7013C94.5595 39.7013 97.7774 36.2054 97.7774 30.579C97.7774 27.7795 97.1041 25.5619 95.7714 23.9857C94.3598 22.3226 92.326 21.4795 89.7164 21.4795ZM84.316 26.9227C86.6842 24.8013 87.7475 24.4485 89.3031 24.4485C92.7485 24.4485 94.4202 26.4553 94.4202 30.5835C94.4202 34.501 92.4142 36.7461 88.913 36.7461C86.9442 36.7461 85.4351 35.9672 84.316 34.3635V26.9227Z" fill="#1D1D1B"/>
<path d="M104.111 23.6009L104.065 21.901H100.916V39.3165H104.269V27.2388C105.518 25.4473 107.278 24.4668 109.242 24.4668L110.449 24.476V21.4978L109.479 21.4841C107.519 21.4978 105.639 22.2492 104.111 23.6009Z" fill="#1D1D1B"/>
<path d="M120.229 21.452C114.81 21.452 111.308 25.0258 111.308 30.5607C111.308 36.1138 114.889 39.6968 120.424 39.6968C122.926 39.6968 125.202 39.0645 126.999 37.8732L127.672 37.4242L125.977 35.312L125.42 35.6144C123.957 36.4116 122.234 36.8194 120.428 36.7782C117.415 36.7553 115.353 35.1058 114.782 32.3201H128.382L128.499 31.7153C128.629 31.0417 128.703 30.2124 128.703 29.4977C128.703 24.389 125.615 21.452 120.229 21.452ZM125.466 29.1815C125.466 29.3556 125.462 29.5343 125.448 29.713H114.67C114.879 26.35 116.946 24.3523 120.266 24.3523C123.813 24.3523 125.466 25.8872 125.466 29.1815Z" fill="#1D1D1B"/>
<path d="M58.15 45.2188C61.2379 45.2188 63.035 47.1569 63.035 50.0022C63.035 52.875 61.2658 54.7993 58.15 54.7993H55.0621V45.2234H58.15V45.2188ZM58.15 54.1075C60.7504 54.1075 62.2131 52.5451 62.2131 50.0022C62.2131 47.4914 60.7272 45.9061 58.15 45.9061H55.884V54.1075H58.15Z" fill="#1D1D1B"/>
<path d="M71.0588 54.2303C70.3205 54.7205 69.4058 54.9588 68.4167 54.9588C66.1321 54.9588 64.8273 53.4422 64.8273 51.3529C64.8273 49.3277 66.0486 47.7607 68.3331 47.7607C70.4413 47.7607 71.6486 48.8375 71.6486 50.8993C71.6486 51.1375 71.6253 51.4812 71.565 51.7927H65.6214C65.77 53.3414 66.7962 54.3311 68.4167 54.3448C69.1922 54.3585 70.0048 54.1936 70.7199 53.8041L71.0588 54.2303ZM70.8685 51.3071C70.8963 51.1146 70.9056 50.9176 70.9056 50.7618C70.9056 49.0803 69.9583 48.3701 68.3517 48.3701C66.5965 48.3701 65.6492 49.5522 65.6214 51.1559V51.3071H70.8685Z" fill="#1D1D1B"/>
<path d="M74.5182 45.8959V49.6668H79.0828V50.3495H74.5182V54.7892H73.6917V45.2133H79.5192V45.8959H74.5182Z" fill="#1D1D1B"/>
<path d="M82.5236 45.8959C82.5236 46.1433 82.3053 46.3404 82.0406 46.3404C81.7713 46.3404 81.5577 46.1388 81.5577 45.8959C81.5577 45.6485 81.776 45.4515 82.0406 45.4515C82.31 45.4469 82.5236 45.6485 82.5236 45.8959ZM81.6413 54.7938V47.9532H82.4353V54.7938H81.6413Z" fill="#1D1D1B"/>
</svg>
