<?xml version="1.0" encoding="utf-8"?>
<!-- Generator: Adobe Illustrator 25.3.1, SVG Export Plug-In . SVG Version: 6.00 Build 0)  -->
<svg version="1.1" id="Layer_1" xmlns="http://www.w3.org/2000/svg" xmlns:xlink="http://www.w3.org/1999/xlink" x="0px" y="0px"
	 viewBox="0 0 800 800" style="enable-background:new 0 0 800 800;" xml:space="preserve">
<style type="text/css">
	.st0{fill:#FEF8F1;}
	.st1{display:none;}
	.st2{display:inline;}
	.st3{fill:#F0B90B;stroke:#F0B90B;}
	.st4{display:inline;fill:#F3BA2F;}
	.st5{display:none;fill-rule:evenodd;clip-rule:evenodd;fill:#FFAE54;}
	.st6{display:inline;fill:#52B3F8;}
	.st7{display:inline;fill:#285FDE;}
	.st8{display:none;fill:url(#SVGID_1_);}
	.st9{display:none;fill-rule:evenodd;clip-rule:evenodd;fill:#606063;}
	.st10{display:none;fill:#BDBDBD;}
	.st11{display:none;fill:#F9F8F9;}
	.st12{display:none;fill-rule:evenodd;clip-rule:evenodd;fill:#5C330E;}
	.st13{display:none;fill:#F7DC99;}
	.st14{display:none;fill:#C68A59;}
	.st15{display:none;fill-rule:evenodd;clip-rule:evenodd;fill:url(#SVGID_2_);}
	.st16{display:none;fill:#967424;}
	.st17{display:none;fill:#E6BA41;}
	.st18{fill:#FFFFFF;}
	.st19{fill-rule:evenodd;clip-rule:evenodd;fill:#FFAE54;}
	.st20{clip-path:url(#SVGID_4_);fill:#FF9900;}
	.st21{clip-path:url(#SVGID_4_);fill:#FF9901;}
	.st22{clip-path:url(#SVGID_4_);fill:#FF9A02;}
	.st23{clip-path:url(#SVGID_4_);fill:#FF9A03;}
	.st24{clip-path:url(#SVGID_4_);fill:#FF9B04;}
	.st25{clip-path:url(#SVGID_4_);fill:#FF9B05;}
	.st26{clip-path:url(#SVGID_4_);fill:#FF9B06;}
	.st27{clip-path:url(#SVGID_4_);fill:#FF9C07;}
	.st28{clip-path:url(#SVGID_4_);fill:#FF9C08;}
	.st29{clip-path:url(#SVGID_4_);fill:#FF9D09;}
	.st30{clip-path:url(#SVGID_4_);fill:#FF9D0A;}
	.st31{clip-path:url(#SVGID_4_);fill:#FF9D0B;}
	.st32{clip-path:url(#SVGID_4_);fill:#FF9E0C;}
	.st33{clip-path:url(#SVGID_4_);fill:#FF9E0D;}
	.st34{clip-path:url(#SVGID_4_);fill:#FF9F0E;}
	.st35{clip-path:url(#SVGID_4_);fill:#FF9F0F;}
	.st36{clip-path:url(#SVGID_4_);fill:#FFA010;}
	.st37{clip-path:url(#SVGID_4_);fill:#FFA011;}
	.st38{clip-path:url(#SVGID_4_);fill:#FFA012;}
	.st39{clip-path:url(#SVGID_4_);fill:#FFA113;}
	.st40{clip-path:url(#SVGID_4_);fill:#FFA114;}
	.st41{clip-path:url(#SVGID_4_);fill:#FFA215;}
	.st42{clip-path:url(#SVGID_4_);fill:#FFA216;}
	.st43{clip-path:url(#SVGID_4_);fill:#FFA217;}
	.st44{clip-path:url(#SVGID_4_);fill:#FFA318;}
	.st45{clip-path:url(#SVGID_4_);fill:#FFA319;}
	.st46{clip-path:url(#SVGID_4_);fill:#FFA41A;}
	.st47{clip-path:url(#SVGID_4_);fill:#FFA41B;}
	.st48{clip-path:url(#SVGID_4_);fill:#FFA41C;}
	.st49{clip-path:url(#SVGID_4_);fill:#FFA51D;}
	.st50{clip-path:url(#SVGID_4_);fill:#FFA51E;}
	.st51{clip-path:url(#SVGID_4_);fill:#FFA61F;}
	.st52{clip-path:url(#SVGID_4_);fill:#FFA620;}
	.st53{clip-path:url(#SVGID_4_);fill:#FFA621;}
	.st54{clip-path:url(#SVGID_4_);fill:#FFA722;}
	.st55{clip-path:url(#SVGID_4_);fill:#FFA723;}
	.st56{clip-path:url(#SVGID_4_);fill:#FFA824;}
	.st57{clip-path:url(#SVGID_4_);fill:#FFA825;}
	.st58{clip-path:url(#SVGID_4_);fill:#FFA826;}
	.st59{clip-path:url(#SVGID_4_);fill:#FFA927;}
	.st60{clip-path:url(#SVGID_4_);fill:#FFA928;}
	.st61{clip-path:url(#SVGID_4_);fill:#FFAA29;}
	.st62{clip-path:url(#SVGID_4_);fill:#FFAA2A;}
	.st63{clip-path:url(#SVGID_4_);fill:#FFAA2B;}
	.st64{clip-path:url(#SVGID_4_);fill:#FFAB2C;}
	.st65{clip-path:url(#SVGID_4_);fill:#FFAB2D;}
	.st66{clip-path:url(#SVGID_4_);fill:#FFAC2E;}
	.st67{clip-path:url(#SVGID_4_);fill:#FFAC2F;}
	.st68{clip-path:url(#SVGID_4_);fill:#FFAD30;}
	.st69{clip-path:url(#SVGID_4_);fill:#FFAD31;}
	.st70{clip-path:url(#SVGID_4_);fill:#FFAD32;}
	.st71{clip-path:url(#SVGID_4_);fill:#FFAE33;}
	.st72{clip-path:url(#SVGID_4_);fill:#FFAE34;}
	.st73{clip-path:url(#SVGID_4_);fill:#FFAF35;}
	.st74{clip-path:url(#SVGID_4_);fill:#FFAF36;}
	.st75{clip-path:url(#SVGID_4_);fill:#FFAF37;}
	.st76{clip-path:url(#SVGID_4_);fill:#FFB038;}
	.st77{clip-path:url(#SVGID_4_);fill:#FFB039;}
	.st78{clip-path:url(#SVGID_4_);fill:#FFB13A;}
	.st79{clip-path:url(#SVGID_4_);fill:#FFB13C;}
	.st80{clip-path:url(#SVGID_4_);fill:#FFB13D;}
	.st81{clip-path:url(#SVGID_4_);fill:#FFB23E;}
	.st82{clip-path:url(#SVGID_4_);fill:#FFB23F;}
	.st83{clip-path:url(#SVGID_4_);fill:#FFB340;}
	.st84{clip-path:url(#SVGID_4_);fill:#FFB341;}
	.st85{clip-path:url(#SVGID_4_);fill:#FFB342;}
	.st86{clip-path:url(#SVGID_4_);fill:#FFB443;}
	.st87{clip-path:url(#SVGID_4_);fill:#FFB444;}
	.st88{clip-path:url(#SVGID_4_);fill:#FFB545;}
	.st89{clip-path:url(#SVGID_4_);fill:#FFB546;}
	.st90{clip-path:url(#SVGID_4_);fill:#FFB547;}
	.st91{clip-path:url(#SVGID_4_);fill:#FFB648;}
	.st92{clip-path:url(#SVGID_4_);fill:#FFB649;}
	.st93{clip-path:url(#SVGID_4_);fill:#FFB74A;}
	.st94{clip-path:url(#SVGID_4_);fill:#FFB74B;}
	.st95{clip-path:url(#SVGID_4_);fill:#FFB84C;}
	.st96{clip-path:url(#SVGID_4_);fill:#FFB84D;}
	.st97{clip-path:url(#SVGID_4_);fill:#FFB84E;}
	.st98{clip-path:url(#SVGID_4_);fill:#FFB94F;}
	.st99{clip-path:url(#SVGID_4_);fill:#FFB950;}
	.st100{clip-path:url(#SVGID_4_);fill:#FFBA51;}
	.st101{clip-path:url(#SVGID_4_);fill:#FFBA52;}
	.st102{clip-path:url(#SVGID_4_);fill:#FFBA53;}
	.st103{clip-path:url(#SVGID_4_);fill:#FFBB54;}
	.st104{clip-path:url(#SVGID_4_);fill:#FFBB55;}
	.st105{clip-path:url(#SVGID_4_);fill:#FFBC56;}
	.st106{clip-path:url(#SVGID_4_);fill:#FFBC57;}
	.st107{clip-path:url(#SVGID_4_);fill:#FFBC58;}
	.st108{clip-path:url(#SVGID_4_);fill:#FFBD59;}
	.st109{clip-path:url(#SVGID_4_);fill:#FFBD5A;}
	.st110{clip-path:url(#SVGID_4_);fill:#FFBE5B;}
	.st111{clip-path:url(#SVGID_4_);fill:#FFBE5C;}
	.st112{clip-path:url(#SVGID_4_);fill:#FFBE5D;}
	.st113{clip-path:url(#SVGID_4_);fill:#FFBF5E;}
	.st114{clip-path:url(#SVGID_4_);fill:#FFBF5F;}
	.st115{clip-path:url(#SVGID_4_);fill:#FFC060;}
	.st116{clip-path:url(#SVGID_4_);fill:#FFC061;}
	.st117{clip-path:url(#SVGID_4_);fill:#FFC062;}
	.st118{clip-path:url(#SVGID_4_);fill:#FFC163;}
	.st119{clip-path:url(#SVGID_4_);fill:#FFC164;}
	.st120{clip-path:url(#SVGID_4_);fill:#FFC265;}
	.st121{clip-path:url(#SVGID_4_);fill:#FFC266;}
	.st122{clip-path:url(#SVGID_4_);fill:#FFC267;}
	.st123{clip-path:url(#SVGID_4_);fill:#FFC368;}
	.st124{clip-path:url(#SVGID_4_);fill:#FFC369;}
	.st125{clip-path:url(#SVGID_4_);fill:#FFC46A;}
	.st126{clip-path:url(#SVGID_4_);fill:#FFC46B;}
	.st127{clip-path:url(#SVGID_4_);fill:#FFC56C;}
	.st128{clip-path:url(#SVGID_4_);fill:#FFC56D;}
	.st129{clip-path:url(#SVGID_4_);fill:#FFC56E;}
	.st130{clip-path:url(#SVGID_4_);fill:#FFC66F;}
	.st131{clip-path:url(#SVGID_4_);fill:#FFC670;}
	.st132{clip-path:url(#SVGID_4_);fill:#FFC771;}
	.st133{clip-path:url(#SVGID_4_);fill:#FFC772;}
	.st134{clip-path:url(#SVGID_4_);fill:#FFC773;}
	.st135{clip-path:url(#SVGID_4_);fill:#FFC874;}
	.st136{clip-path:url(#SVGID_4_);fill:#FFC875;}
	.st137{clip-path:url(#SVGID_4_);fill:#FFC976;}
	.st138{clip-path:url(#SVGID_4_);fill:#FFC977;}
	.st139{clip-path:url(#SVGID_4_);fill:#FFC876;}
	.st140{clip-path:url(#SVGID_4_);fill:#FEC774;}
	.st141{clip-path:url(#SVGID_4_);fill:#FEC773;}
	.st142{clip-path:url(#SVGID_4_);fill:#FEC672;}
	.st143{clip-path:url(#SVGID_4_);fill:#FEC671;}
	.st144{clip-path:url(#SVGID_4_);fill:#FEC570;}
	.st145{clip-path:url(#SVGID_4_);fill:#FDC56F;}
	.st146{clip-path:url(#SVGID_4_);fill:#FDC46E;}
	.st147{clip-path:url(#SVGID_4_);fill:#FDC36D;}
	.st148{clip-path:url(#SVGID_4_);fill:#FDC36C;}
	.st149{clip-path:url(#SVGID_4_);fill:#FCC26B;}
	.st150{clip-path:url(#SVGID_4_);fill:#FCC26A;}
	.st151{clip-path:url(#SVGID_4_);fill:#FCC169;}
	.st152{clip-path:url(#SVGID_4_);fill:#FCC168;}
	.st153{clip-path:url(#SVGID_4_);fill:#FCC067;}
	.st154{clip-path:url(#SVGID_4_);fill:#FBC066;}
	.st155{clip-path:url(#SVGID_4_);fill:#FBBF65;}
	.st156{clip-path:url(#SVGID_4_);fill:#FBBF64;}
	.st157{clip-path:url(#SVGID_4_);fill:#FBBE62;}
	.st158{clip-path:url(#SVGID_4_);fill:#FBBD61;}
	.st159{clip-path:url(#SVGID_4_);fill:#FABD60;}
	.st160{clip-path:url(#SVGID_4_);fill:#FABC5F;}
	.st161{clip-path:url(#SVGID_4_);fill:#FABC5E;}
	.st162{clip-path:url(#SVGID_4_);fill:#FABB5D;}
	.st163{clip-path:url(#SVGID_4_);fill:#FABB5C;}
	.st164{clip-path:url(#SVGID_4_);fill:#F9BA5B;}
	.st165{clip-path:url(#SVGID_4_);fill:#F9BA5A;}
	.st166{clip-path:url(#SVGID_4_);fill:#F9B959;}
	.st167{clip-path:url(#SVGID_4_);fill:#F9B858;}
	.st168{clip-path:url(#SVGID_4_);fill:#F8B857;}
	.st169{clip-path:url(#SVGID_4_);fill:#F8B756;}
	.st170{clip-path:url(#SVGID_4_);fill:#F8B755;}
	.st171{clip-path:url(#SVGID_4_);fill:#F8B654;}
	.st172{clip-path:url(#SVGID_4_);fill:#F8B653;}
	.st173{clip-path:url(#SVGID_4_);fill:#F7B552;}
	.st174{clip-path:url(#SVGID_4_);fill:#F7B551;}
	.st175{clip-path:url(#SVGID_4_);fill:#F7B450;}
	.st176{fill:#AC562A;}
	.st177{fill:#FFFFFF;filter:url(#Adobe_OpacityMaskFilter);}
	.st178{mask:url(#path-4-inside-1_1_);}
</style>
<image style="display:none;overflow:visible;enable-background:new    ;" width="508" height="508" id="icon-round-512" xlink:href="61A8E0037BD41395.png"  transform="matrix(1.2418 0 0 1.2418 89.1463 80)">
</image>
<circle class="st0" cx="400" cy="400.4" r="399.6"/>
<g id="Layer_2_1_" class="st1">
	<g id="Layer_1-2" class="st2">
		<path class="st3" d="M395.2,171l56.6,58L309.2,371.6L252.6,315L395.2,171z"/>
		<path class="st3" d="M481.2,257l56.6,58L309.2,543.6l-56.6-56.6L481.2,257z"/>
		<path class="st3" d="M223.2,342.9l56.6,58l-56.6,56.6l-56.6-56.6L223.2,342.9z"/>
		<path class="st3" d="M567.2,342.9l56.6,58L395.2,629.5l-56.6-56.6L567.2,342.9z"/>
	</g>
</g>
<g class="st1">
	<path class="st4" d="M303.8,363.8l89-89.1l89.1,89.1l51.8-51.8L392.8,171.1L251.9,312L303.8,363.8 M163.5,400.4l51.8-51.8
		l51.8,51.8l-51.8,51.8L163.5,400.4z M303.8,437l89,89.1l89.1-89.1l51.8,51.8l0,0L392.8,629.7L251.9,488.8l-0.1-0.1L303.8,437
		 M518.5,400.4l51.8-51.8l51.8,51.8l-51.8,51.8L518.5,400.4z"/>
	<path class="st4" d="M445.4,400.4L445.4,400.4l-52.6-52.6l-38.9,38.9l0,0l-4.5,4.5l-9.2,9.2l-0.1,0.1l0.1,0.1l52.5,52.5
		L445.4,400.4L445.4,400.4L445.4,400.4"/>
</g>
<path class="st5" d="M429.3,303.9c-24.4-5.5-50.5-1-72,13.6c32.3-10.8,69.4-3.3,95.1,22.6c36.1,36.5,36.1,96.1,0,132.6
	c-4.3,4.4-9.1,8.3-14.1,11.6c13.2-4.6,25.7-12,36.3-22.6c25.6-25.8,33-63.2,22.5-95.7C467.5,354.3,443.4,332,429.3,303.9z"/>
<g class="st1">
	<path class="st6" d="M497.3,317.5L334.6,485.3h-68.7l-0.1-0.2c-0.1,0-0.1,0-0.2,0c-1.2,0.1-2.5,0.1-3.7,0.1
		c-19.3,0-35.9-11.2-43.7-27.5l-1-2.2c-2.4-5.8-3.8-12.1-3.8-18.8c0-13.7,5.7-26.1,14.9-34.9l-0.1,0l220.1-226.9
		c5.9-6.1,16.1-4.3,19.6,3.4l38.7,85.8C514.8,282.1,511.1,303.3,497.3,317.5"/>
	<path class="st6" d="M528.3,623.1H323.9c-19,0-36.2-11.1-44-28.4l-61.8-136.9c7.8,16.2,24.5,27.5,43.8,27.5c1.2,0,2.5,0,3.7-0.1
		l0.3,0.1h203.4c9.5,0,18.1,5.6,22,14.2l48.1,106.6C542.9,614.1,537.1,623.1,528.3,623.1"/>
	<path class="st7" d="M278.2,590.9l-60.1-133.1c7.8,16.3,24.5,27.5,43.8,27.5c1.2,0,2.5-0.1,3.7-0.1l0.2,0.1h68.7l-43.2,44.6
		l-4.1,4.3l-0.9,0.9c-7.7,9.3-12.2,21.2-12.2,34.2C274,576.9,275.4,584.3,278.2,590.9"/>
</g>
<linearGradient id="SVGID_1_" gradientUnits="userSpaceOnUse" x1="400" y1="278" x2="400" y2="918" gradientTransform="matrix(1 0 0 1 0 -198)">
	<stop  offset="0" style="stop-color:#7BD6DB"/>
	<stop  offset="0.762" style="stop-color:#60C3D2"/>
</linearGradient>
<circle class="st8" cx="400" cy="400" r="320"/>
<path class="st9" d="M192.1,435.2c-0.1,1.2-0.1,2.4-0.1,3.6c0,4.5,0.4,9,1.2,13.5h-1.2v7c0,3.4,0.2,6.8,0.7,10.1
	c8.5,65,98,116.2,207.3,116.2s198.8-51.2,207.3-116.2c0.4-3.3,0.7-6.7,0.7-10.1v-7h-1.2c0.8-4.4,1.2-8.9,1.2-13.5
	c0-1.2,0-2.4-0.1-3.6c-3.1-68.1-95-122.7-207.9-122.7S195.3,367.1,192.1,435.2z M175.1,435.2c1.6-41.5,29.8-76.4,69-100.3
	c40.7-24.7,95.9-39.5,155.9-39.5s115.2,14.7,155.9,39.5c39.3,23.9,67.5,58.7,69,100.3h0.1v24c0,43.1-28.7,79.3-69.1,103.9
	c-40.7,24.7-95.9,39.5-155.9,39.5S284.8,587.8,244.1,563c-40.4-24.5-69.1-60.7-69.1-103.9L175.1,435.2L175.1,435.2L175.1,435.2z"/>
<path class="st10" d="M607.9,459.2c0,69.7-93.1,126.2-207.9,126.2s-207.9-56.5-207.9-126.2v-20h415.9V459.2z"/>
<path class="st11" d="M607.9,438.8c0,69.7-93.1,126.2-207.9,126.2s-207.9-56.5-207.9-126.2S285.2,312.5,400,312.5
	S607.9,369,607.9,438.8z"/>
<path class="st12" d="M224.1,403.1c0,0.1,0,0.2,0,0.2c0,5.7,0.8,11.4,2.4,16.8h-2.4v7.4c0,3.3,0.3,6.5,0.8,9.7
	c7.9,48,74.2,85.5,154.9,85.5s147-37.5,154.9-85.5c0.5-3.2,0.8-6.4,0.8-9.7v-7.4H533c1.5-5.3,2.4-10.8,2.4-16.4c0-0.2,0-0.3,0-0.5
	c0-0.1,0-0.2,0-0.2c-0.2-52.4-69.8-94.9-155.7-94.9S224.3,350.6,224.1,403.1z M207,403.1L207,403.1v24.5c0,34.5,22.8,62.9,53.8,81.8
	c31.3,19.1,73.4,30.4,119,30.4c45.6,0,87.7-11.3,119-30.4c31-18.9,53.8-47.4,53.8-81.8v-23.7c0-0.2,0-0.4,0-0.5
	c0-34.5-22.8-62.9-53.8-81.8c-31.3-19.1-73.4-30.4-119-30.4c-45.6,0-87.7,11.3-119,30.4C229.9,340.4,207.1,368.7,207,403.1z"/>
<path class="st13" d="M535.4,427.5c0,52.5-69.7,95.1-155.7,95.1c-86,0-155.7-42.6-155.7-95.1v-22.3h311.4L535.4,427.5L535.4,427.5z"
	/>
<path class="st14" d="M535.4,403.3c0,52.5-69.7,95.1-155.7,95.1c-86,0-155.7-42.6-155.7-95.1c0-52.5,69.7-95.1,155.7-95.1
	C465.7,308.2,535.4,350.8,535.4,403.3z"/>
<path class="st12" d="M271,351.9c0,0.1,0,0.2,0,0.2c0,5.7,0.8,11.4,2.4,16.8H271v7.4c0,3.3,0.3,6.5,0.8,9.7
	c7.9,48,74.2,85.5,154.9,85.5s147-37.5,154.9-85.5c0.5-3.2,0.8-6.4,0.8-9.7V369h-2.4c1.5-5.3,2.4-10.8,2.4-16.4c0-0.2,0-0.3,0-0.5
	c0-0.1,0-0.2,0-0.2c-0.2-52.4-69.8-94.9-155.7-94.9S271.2,299.5,271,351.9z M253.9,351.9L253.9,351.9v24.5
	c0,34.5,22.8,62.9,53.8,81.8c31.3,19.1,73.4,30.4,119,30.4s87.7-11.3,119-30.4c31-18.9,53.8-47.4,53.8-81.8v-23.7c0-0.2,0-0.4,0-0.5
	c0-34.5-22.8-62.9-53.8-81.8c-31.3-19.1-73.4-30.4-119-30.4s-87.7,11.3-119,30.4C276.8,289.2,254,317.5,253.9,351.9z"/>
<path class="st13" d="M582.3,376.4c0,52.5-69.7,95.1-155.7,95.1c-86,0-155.7-42.6-155.7-95.1V354h311.4L582.3,376.4L582.3,376.4z"/>
<path class="st14" d="M582.3,352.1c0,52.5-69.7,95.1-155.7,95.1c-86,0-155.7-42.6-155.7-95.1c0-52.5,69.7-95.1,155.7-95.1
	S582.3,299.6,582.3,352.1z"/>
<path class="st12" d="M224.1,300.7c0,0.1,0,0.2,0,0.2c0,5.7,0.8,11.4,2.4,16.8h-2.4v7.4c0,3.3,0.3,6.5,0.8,9.7
	c7.9,48,74.2,85.5,154.9,85.5s147-37.5,154.9-85.5c0.5-3.2,0.8-6.4,0.8-9.7v-7.4H533c1.5-5.3,2.4-10.8,2.4-16.4c0-0.2,0-0.3,0-0.5
	c0-0.1,0-0.2,0-0.2c-0.2-52.4-69.8-94.9-155.7-94.9S224.3,248.3,224.1,300.7z M207,300.7L207,300.7v24.5c0,34.5,22.8,62.9,53.8,81.8
	c31.3,19.1,73.4,30.4,119,30.4c45.6,0,87.7-11.3,119-30.4c31-18.9,53.8-47.4,53.8-81.8v-23.7c0-0.2,0-0.4,0-0.5
	c0-34.5-22.8-62.9-53.8-81.8c-31.3-19.1-73.4-30.4-119-30.4c-45.6,0-87.7,11.3-119,30.4C229.9,238,207.1,266.4,207,300.7z"/>
<path class="st13" d="M535.4,325.2c0,52.5-69.7,95.1-155.7,95.1c-86,0-155.7-42.6-155.7-95.1v-22.3h311.4L535.4,325.2L535.4,325.2z"
	/>
<path class="st14" d="M535.4,301c0,52.5-69.7,95.1-155.7,95.1c-86,0-155.7-42.6-155.7-95.1c0-52.6,69.7-95.1,155.7-95.1
	C465.7,205.8,535.4,248.4,535.4,301z"/>
<linearGradient id="SVGID_2_" gradientUnits="userSpaceOnUse" x1="354.625" y1="449.1667" x2="354.625" y2="647.0267" gradientTransform="matrix(1 0 0 1 0 -198)">
	<stop  offset="0" style="stop-color:#934F1E"/>
	<stop  offset="0.37" style="stop-color:#743D13"/>
	<stop  offset="1" style="stop-color:#824519"/>
</linearGradient>
<path class="st15" d="M260.9,306.9c0,17.5,12.8,33.3,32.9,43.8l-13.9,24.1l0,0l0,0v61.1c0,8.1,6.5,14.6,14.6,14.6
	c8.1,0,14.6-6.5,14.6-14.6v-48.6l15-26c9.6,2,19.9,3.1,30.6,3.1c51.8,0,93.8-25.8,93.8-57.6s-42-57.6-93.8-57.6
	S260.9,275,260.9,306.9z"/>
<path class="st12" d="M293.7,350.7c-2.2-1.2-4.4-2.4-6.4-3.7c-16.4-10.4-26.5-24.5-26.5-40.1c0-31.8,42-57.6,93.8-57.6
	s93.8,25.8,93.8,57.6s-42,57.6-93.8,57.6c-10.7,0-21-1.1-30.6-3.1l-15,26v48.6c0,8.1-6.5,14.6-14.6,14.6s-14.6-6.5-14.6-14.6v-61.1
	L293.7,350.7z M264.9,375.1v60.8c0,16.3,13.2,29.5,29.5,29.5c16.3,0,29.5-13.2,29.5-29.5v-44.6l7.8-13.5c7.4,1,15,1.6,22.9,1.6
	c28.2,0,54.4-7,74.1-19.1c19.4-12,34.6-30.4,34.6-53.5s-15.1-41.5-34.6-53.5c-19.7-12.1-45.9-19.1-74.1-19.1s-54.4,7-74.1,19.1
	c-19.4,12-34.6,30.4-34.6,53.5c0,20.2,11.6,36.9,27.7,48.8l-6.6,11.5c-0.6,1.1-1.1,2.2-1.5,3.4C265,372.1,264.9,373.6,264.9,375.1z"
	/>
<path class="st16" d="M290.2,282.6c0,16.5,21,29.9,46.9,29.9s46.9-13.4,46.9-29.9s-21-29.9-46.9-29.9
	C311.2,252.7,290.2,266.1,290.2,282.6z"/>
<path class="st16" d="M290.2,269.8H384v12.8h-93.8L290.2,269.8L290.2,269.8z"/>
<path class="st17" d="M290.2,269.8c0,16.5,21,29.9,46.9,29.9s46.9-13.4,46.9-29.9s-21-29.9-46.9-29.9
	C311.2,239.9,290.2,253.3,290.2,269.8z"/>
<path class="st16" d="M319.3,266.2l13.2-8.4c2.8-1.8,6.4-1.8,9.2,0l13.2,8.4c2.6,1.7,2.6,5.5,0,7.2l-13.2,8.4
	c-2.8,1.8-6.4,1.8-9.2,0l-13.2-8.4C316.6,271.7,316.6,267.9,319.3,266.2z"/>
<path class="st12" d="M295.9,236.1c11.2-7.1,25.8-11.1,41.2-11.1s30,3.9,41.2,11.1c11,7,20.7,18.6,20.7,33.7v12.8
	c0,15.1-9.6,26.7-20.7,33.7c-11.2,7.1-25.8,11.1-41.2,11.1s-30-3.9-41.2-11.1c-11-7-20.7-18.6-20.7-33.7v-12.8
	C275.2,254.7,284.8,243.1,295.9,236.1z M337.1,239.9c-25.9,0-46.9,13.4-46.9,29.9v12.8c0,16.5,21,29.9,46.9,29.9
	s46.9-13.4,46.9-29.9v-12.8C384,253.3,363,239.9,337.1,239.9z"/>
<g>
	<g>
		<path class="st18" d="M532.4,397.4c4.4-1.2,8.9,1.6,10,6.1l7.2,29.7c1.1,4.4-1.6,9-6,10.1c-4.4,1.2-8.9-1.6-10-6.1l-7.2-29.7
			C525.3,403,528,398.5,532.4,397.4L532.4,397.4z M309.3,179.8c-2.5-3.9-1.4-9,2.3-11.5l25.4-16.8c3.9-2.5,9-1.4,11.5,2.4
			c2.5,3.9,1.4,9-2.3,11.5l-25.4,16.8C317,184.8,311.9,183.6,309.3,179.8z"/>
	</g>
	<g>
		<path class="st19" d="M440.5,283.8c-29.4-6.6-60.9-1.2-86.8,16.4c38.9-13,83.7-4,114.6,27.3c43.6,44.1,43.6,115.9,0,159.9
			c-5.2,5.3-10.9,10-17,14c16-5.5,31-14.5,43.7-27.3C526,443,535,397.9,522.2,358.7C486.6,344.6,457.5,317.8,440.5,283.8z"/>
	</g>
	<g>
		<g>
			<defs>
				<path id="SVGID_3_" d="M624,536.7L624,536.7C553.3,667.4,391.1,715.1,262,643.8C132.9,572.5,85.3,408.7,156,278
					c46.5-86,132.7-136.1,223-140c12-0.5,21.3,5.8,27.7,17c6.6,11.5,9.6,27.2,8,42.1c-0.6,5.8-0.9,11.6-0.9,17.5
					c0,27.8,6.9,54,19,77c-56.1-21.2-120.7,2.1-150.2,56.5C250.2,407.8,272,483,331.2,515.7c59.3,32.8,133.9,10.6,166.2-49.1l0,0
					c18.1-33.5,19.2-71.9,6.2-104.9c22.6,11.6,48.2,18.1,75.3,18.1c15.2,0,29.9-2.1,44-5.9c8-2.2,16.6-1.3,23,2
					c6.2,3.2,9.9,8.2,10.3,14.6C659.3,439.7,649.1,490.3,624,536.7z"/>
			</defs>
			<clipPath id="SVGID_4_">
				<use xlink:href="#SVGID_3_"  style="overflow:visible;"/>
			</clipPath>
			<rect x="85.3" y="137.5" class="st20" width="574" height="577.6"/>
			<ellipse class="st20" cx="390" cy="407.4" rx="277.1" ry="279.9"/>
			<ellipse class="st21" cx="390" cy="407.4" rx="276.3" ry="279.1"/>
			<ellipse class="st22" cx="390" cy="407.4" rx="275.5" ry="278.3"/>
			<ellipse class="st23" cx="390" cy="407.4" rx="274.7" ry="277.5"/>
			<ellipse class="st24" cx="390" cy="407.4" rx="273.8" ry="276.6"/>
			<ellipse class="st25" cx="390" cy="407.4" rx="273" ry="275.8"/>
			<ellipse class="st26" cx="390" cy="407.4" rx="272.2" ry="275"/>
			<ellipse class="st27" cx="390" cy="407.4" rx="271.4" ry="274.1"/>
			<ellipse class="st28" cx="390" cy="407.4" rx="270.6" ry="273.3"/>
			<ellipse class="st29" cx="390" cy="407.4" rx="269.7" ry="272.5"/>
			<ellipse class="st30" cx="390" cy="407.4" rx="268.9" ry="271.7"/>
			<ellipse class="st31" cx="390" cy="407.4" rx="268.1" ry="270.8"/>
			<ellipse class="st32" cx="390" cy="407.4" rx="267.3" ry="270"/>
			<ellipse class="st33" cx="390" cy="407.4" rx="266.5" ry="269.2"/>
			<ellipse class="st34" cx="390" cy="407.4" rx="265.6" ry="268.3"/>
			<ellipse class="st35" cx="390" cy="407.4" rx="264.8" ry="267.5"/>
			<ellipse class="st36" cx="390" cy="407.4" rx="264" ry="266.7"/>
			<ellipse class="st37" cx="390" cy="407.4" rx="263.2" ry="265.9"/>
			<ellipse class="st38" cx="390" cy="407.4" rx="262.4" ry="265"/>
			<ellipse class="st39" cx="390" cy="407.4" rx="261.5" ry="264.2"/>
			<ellipse class="st40" cx="390" cy="407.4" rx="260.7" ry="263.4"/>
			<ellipse class="st41" cx="390" cy="407.4" rx="259.9" ry="262.5"/>
			<ellipse class="st42" cx="390" cy="407.4" rx="259.1" ry="261.7"/>
			<ellipse class="st43" cx="390" cy="407.4" rx="258.3" ry="260.9"/>
			<ellipse class="st44" cx="390" cy="407.4" rx="257.4" ry="260.1"/>
			<ellipse class="st45" cx="390" cy="407.4" rx="256.6" ry="259.2"/>
			<ellipse class="st46" cx="390" cy="407.4" rx="255.8" ry="258.4"/>
			<ellipse class="st47" cx="390" cy="407.4" rx="255" ry="257.6"/>
			<ellipse class="st48" cx="390" cy="407.4" rx="254.2" ry="256.7"/>
			<ellipse class="st49" cx="390" cy="407.4" rx="253.3" ry="255.9"/>
			<ellipse class="st50" cx="390" cy="407.4" rx="252.5" ry="255.1"/>
			<ellipse class="st51" cx="390" cy="407.4" rx="251.7" ry="254.3"/>
			<ellipse class="st52" cx="390" cy="407.4" rx="250.9" ry="253.4"/>
			<ellipse class="st53" cx="390" cy="407.4" rx="250" ry="252.6"/>
			<ellipse class="st54" cx="390" cy="407.4" rx="249.2" ry="251.8"/>
			<ellipse class="st55" cx="390" cy="407.4" rx="248.4" ry="250.9"/>
			<ellipse class="st56" cx="390" cy="407.4" rx="247.6" ry="250.1"/>
			<ellipse class="st57" cx="390" cy="407.4" rx="246.8" ry="249.3"/>
			<ellipse class="st58" cx="390" cy="407.4" rx="245.9" ry="248.5"/>
			<ellipse class="st59" cx="390" cy="407.4" rx="245.1" ry="247.6"/>
			<ellipse class="st60" cx="390" cy="407.4" rx="244.3" ry="246.8"/>
			<ellipse class="st61" cx="390" cy="407.4" rx="243.5" ry="246"/>
			<ellipse class="st62" cx="390" cy="407.4" rx="242.7" ry="245.1"/>
			<ellipse class="st63" cx="390" cy="407.4" rx="241.8" ry="244.3"/>
			<ellipse class="st64" cx="390" cy="407.4" rx="241" ry="243.5"/>
			<ellipse class="st65" cx="390" cy="407.4" rx="240.2" ry="242.7"/>
			<ellipse class="st66" cx="390" cy="407.4" rx="239.4" ry="241.8"/>
			<ellipse class="st67" cx="390" cy="407.4" rx="238.6" ry="241"/>
			<ellipse class="st68" cx="390" cy="407.4" rx="237.7" ry="240.2"/>
			<ellipse class="st69" cx="390" cy="407.4" rx="236.9" ry="239.3"/>
			<ellipse class="st70" cx="390" cy="407.4" rx="236.1" ry="238.5"/>
			<ellipse class="st71" cx="390" cy="407.4" rx="235.3" ry="237.7"/>
			<ellipse class="st72" cx="390" cy="407.4" rx="234.5" ry="236.8"/>
			<ellipse class="st73" cx="390" cy="407.4" rx="233.6" ry="236"/>
			<ellipse class="st74" cx="390" cy="407.4" rx="232.8" ry="235.2"/>
			<ellipse class="st75" cx="390" cy="407.4" rx="232" ry="234.4"/>
			<ellipse class="st76" cx="390" cy="407.4" rx="231.2" ry="233.5"/>
			<ellipse class="st77" cx="390" cy="407.4" rx="230.4" ry="232.7"/>
			<ellipse class="st78" cx="390" cy="407.4" rx="229.5" ry="231.9"/>
			<ellipse class="st79" cx="390" cy="407.4" rx="228.7" ry="231"/>
			<ellipse class="st80" cx="390" cy="407.4" rx="227.9" ry="230.2"/>
			<ellipse class="st81" cx="390" cy="407.4" rx="227.1" ry="229.4"/>
			<ellipse class="st82" cx="390" cy="407.4" rx="226.3" ry="228.6"/>
			<ellipse class="st83" cx="390" cy="407.4" rx="225.4" ry="227.7"/>
			<ellipse class="st84" cx="390" cy="407.4" rx="224.6" ry="226.9"/>
			<ellipse class="st85" cx="390" cy="407.4" rx="223.8" ry="226.1"/>
			<ellipse class="st86" cx="390" cy="407.4" rx="223" ry="225.2"/>
			<ellipse class="st87" cx="390" cy="407.4" rx="222.2" ry="224.4"/>
			<ellipse class="st88" cx="390" cy="407.4" rx="221.3" ry="223.6"/>
			<ellipse class="st89" cx="390" cy="407.4" rx="220.5" ry="222.8"/>
			<ellipse class="st90" cx="390" cy="407.4" rx="219.7" ry="221.9"/>
			<ellipse class="st91" cx="390" cy="407.4" rx="218.9" ry="221.1"/>
			<ellipse class="st92" cx="390" cy="407.4" rx="218.1" ry="220.3"/>
			<ellipse class="st93" cx="390" cy="407.4" rx="217.2" ry="219.4"/>
			<ellipse class="st94" cx="390" cy="407.4" rx="216.4" ry="218.6"/>
			<ellipse class="st95" cx="390" cy="407.4" rx="215.6" ry="217.8"/>
			<ellipse class="st96" cx="390" cy="407.4" rx="214.8" ry="217"/>
			<ellipse class="st97" cx="390" cy="407.4" rx="214" ry="216.1"/>
			<ellipse class="st98" cx="390" cy="407.4" rx="213.1" ry="215.3"/>
			<ellipse class="st99" cx="390" cy="407.4" rx="212.3" ry="214.5"/>
			<ellipse class="st100" cx="390" cy="407.4" rx="211.5" ry="213.6"/>
			<ellipse class="st101" cx="390" cy="407.4" rx="210.7" ry="212.8"/>
			<ellipse class="st102" cx="390" cy="407.4" rx="209.9" ry="212"/>
			<ellipse class="st103" cx="390" cy="407.4" rx="209" ry="211.2"/>
			<ellipse class="st104" cx="390" cy="407.4" rx="208.2" ry="210.3"/>
			<ellipse class="st105" cx="390" cy="407.4" rx="207.4" ry="209.5"/>
			<ellipse class="st106" cx="390" cy="407.4" rx="206.6" ry="208.7"/>
			<ellipse class="st107" cx="390" cy="407.4" rx="205.8" ry="207.8"/>
			<ellipse class="st108" cx="390" cy="407.4" rx="204.9" ry="207"/>
			<ellipse class="st109" cx="390" cy="407.4" rx="204.1" ry="206.2"/>
			<ellipse class="st110" cx="390" cy="407.4" rx="203.3" ry="205.4"/>
			<ellipse class="st111" cx="390" cy="407.4" rx="202.5" ry="204.5"/>
			<ellipse class="st112" cx="390" cy="407.4" rx="201.6" ry="203.7"/>
			<ellipse class="st113" cx="390" cy="407.4" rx="200.8" ry="202.9"/>
			<ellipse class="st114" cx="390" cy="407.4" rx="200" ry="202"/>
			<ellipse class="st115" cx="390" cy="407.4" rx="199.2" ry="201.2"/>
			<ellipse class="st116" cx="390" cy="407.4" rx="198.4" ry="200.4"/>
			<ellipse class="st117" cx="390" cy="407.4" rx="197.5" ry="199.6"/>
			<ellipse class="st118" cx="390" cy="407.4" rx="196.7" ry="198.7"/>
			<ellipse class="st119" cx="390" cy="407.4" rx="195.9" ry="197.9"/>
			<ellipse class="st120" cx="390" cy="407.4" rx="195.1" ry="197.1"/>
			<ellipse class="st121" cx="390" cy="407.4" rx="194.3" ry="196.2"/>
			<ellipse class="st122" cx="390" cy="407.4" rx="193.4" ry="195.4"/>
			<ellipse class="st123" cx="390" cy="407.4" rx="192.6" ry="194.6"/>
			<ellipse class="st124" cx="390" cy="407.4" rx="191.8" ry="193.8"/>
			<ellipse class="st125" cx="390" cy="407.4" rx="191" ry="192.9"/>
			<ellipse class="st126" cx="390" cy="407.4" rx="190.2" ry="192.1"/>
			<ellipse class="st127" cx="390" cy="407.4" rx="189.3" ry="191.3"/>
			<ellipse class="st128" cx="390" cy="407.4" rx="188.5" ry="190.4"/>
			<ellipse class="st129" cx="390" cy="407.4" rx="187.7" ry="189.6"/>
			<ellipse class="st130" cx="390" cy="407.4" rx="186.9" ry="188.8"/>
			<ellipse class="st131" cx="390" cy="407.4" rx="186.1" ry="188"/>
			<ellipse class="st132" cx="390" cy="407.4" rx="185.2" ry="187.1"/>
			<ellipse class="st133" cx="390" cy="407.4" rx="184.4" ry="186.3"/>
			<ellipse class="st134" cx="390" cy="407.4" rx="183.6" ry="185.5"/>
			<ellipse class="st135" cx="390" cy="407.4" rx="182.8" ry="184.6"/>
			<ellipse class="st136" cx="390" cy="407.4" rx="182" ry="183.8"/>
			<ellipse class="st137" cx="390" cy="407.4" rx="181.1" ry="183"/>
			<ellipse class="st138" cx="390" cy="407.4" rx="180.3" ry="182.2"/>
			<ellipse class="st138" cx="390" cy="407.4" rx="179.5" ry="181.3"/>
			<ellipse class="st139" cx="390" cy="407.4" rx="177.3" ry="179.1"/>
			<ellipse class="st136" cx="390" cy="407.4" rx="175" ry="176.8"/>
			<ellipse class="st140" cx="390" cy="407.4" rx="172.8" ry="174.6"/>
			<ellipse class="st141" cx="390" cy="407.4" rx="170.6" ry="172.3"/>
			<ellipse class="st142" cx="390" cy="407.4" rx="168.3" ry="170"/>
			<ellipse class="st143" cx="390" cy="407.4" rx="166.1" ry="167.8"/>
			<ellipse class="st144" cx="390" cy="407.4" rx="163.9" ry="165.5"/>
			<ellipse class="st145" cx="390" cy="407.4" rx="161.6" ry="163.3"/>
			<ellipse class="st146" cx="390" cy="407.4" rx="159.4" ry="161"/>
			<ellipse class="st147" cx="390" cy="407.4" rx="157.2" ry="158.8"/>
			<ellipse class="st148" cx="390" cy="407.4" rx="154.9" ry="156.5"/>
			<ellipse class="st149" cx="390" cy="407.4" rx="152.7" ry="154.3"/>
			<ellipse class="st150" cx="390" cy="407.4" rx="150.5" ry="152"/>
			<ellipse class="st151" cx="390" cy="407.4" rx="148.2" ry="149.7"/>
			<ellipse class="st152" cx="390" cy="407.4" rx="146" ry="147.5"/>
			<ellipse class="st153" cx="390" cy="407.4" rx="143.8" ry="145.2"/>
			<ellipse class="st154" cx="390" cy="407.4" rx="141.5" ry="143"/>
			<ellipse class="st155" cx="390" cy="407.4" rx="139.3" ry="140.7"/>
			<ellipse class="st156" cx="390" cy="407.4" rx="137.1" ry="138.5"/>
			<ellipse class="st157" cx="390" cy="407.4" rx="134.8" ry="136.2"/>
			<ellipse class="st158" cx="390" cy="407.4" rx="132.6" ry="134"/>
			<ellipse class="st159" cx="390" cy="407.4" rx="130.4" ry="131.7"/>
			<ellipse class="st160" cx="390" cy="407.4" rx="128.1" ry="129.5"/>
			<ellipse class="st161" cx="390" cy="407.4" rx="125.9" ry="127.2"/>
			<ellipse class="st162" cx="390" cy="407.4" rx="123.7" ry="124.9"/>
			<ellipse class="st163" cx="390" cy="407.4" rx="121.4" ry="122.7"/>
			<ellipse class="st164" cx="390" cy="407.4" rx="119.2" ry="120.4"/>
			<ellipse class="st165" cx="390" cy="407.4" rx="117" ry="118.2"/>
			<ellipse class="st166" cx="390" cy="407.4" rx="114.7" ry="115.9"/>
			<ellipse class="st167" cx="390" cy="407.4" rx="112.5" ry="113.7"/>
			<ellipse class="st168" cx="390" cy="407.4" rx="110.3" ry="111.4"/>
			<ellipse class="st169" cx="390" cy="407.4" rx="108.1" ry="109.2"/>
			<ellipse class="st170" cx="390" cy="407.4" rx="105.8" ry="106.9"/>
			<ellipse class="st171" cx="390" cy="407.4" rx="103.6" ry="104.6"/>
			<ellipse class="st172" cx="390" cy="407.4" rx="101.4" ry="102.4"/>
			<ellipse class="st173" cx="390" cy="407.4" rx="99.1" ry="100.1"/>
			<ellipse class="st174" cx="390" cy="407.4" rx="96.9" ry="97.9"/>
			<ellipse class="st175" cx="390" cy="407.4" rx="94.7" ry="95.6"/>
		</g>
		<path class="st176" d="M389.6,687.4c-45.9,0-91.3-11.6-132.6-34.4C123,578.9,73.5,408.5,146.8,273
			c47-86.9,133.6-141.3,231.7-145.4c15.6-0.7,28.6,7.2,37.2,22.2c7.6,13.3,11.1,31.3,9.3,48.4c-0.6,5.4-0.9,10.9-0.9,16.4
			c0,25.1,6.2,50.1,17.8,72.1l12.8,24.4l-25.8-9.7c-51.8-19.5-110.8,2.7-137.4,51.7c-29.6,54.7-9.6,123.5,44.6,153.5
			c26.1,14.4,56.2,17.8,84.9,9.4c28.9-8.5,52.7-27.8,67.1-54.3c16-29.6,18.1-64.6,5.7-96.1l-10.1-25.7l24.6,12.6
			c34.3,17.6,74.7,21.6,111.7,11.4c10.2-2.8,21.6-1.8,30.5,2.8c9.6,4.9,15.3,13.2,16,23.2c3.3,52.8-8.3,105.3-33.5,151.8
			c-35.6,65.8-94.5,113.6-165.8,134.5C441.7,683.7,415.6,687.4,389.6,687.4z M380.7,148.4c-0.5,0-0.9,0-1.2,0
			c-90.7,3.9-170.8,54.2-214.3,134.5C97.3,408.4,143,566.2,267.1,634.7c59.8,33,128.9,40.7,194.4,21.5
			c66-19.3,120.4-63.5,153.3-124.4l0,0c23.4-43.1,34.1-91.8,31-140.6c-0.1-1.7-0.7-4-4.6-6c-4.3-2.2-10.2-2.7-15.5-1.2
			c-34.3,9.5-72,8.1-105.7-3.9c6.4,31,1.8,63.3-13.4,91.5c-17.1,31.5-45.3,54.4-79.6,64.4c-34,10-69.8,6-100.8-11.1
			c-64.2-35.4-87.9-117-52.8-181.7c27.8-51.2,85.4-77.8,140.9-67.5c-7.2-19.4-10.9-40.2-10.9-61c0-6.3,0.3-12.5,1-18.6
			c1.3-12.9-1.1-26.2-6.6-35.8C391.5,149.4,384.2,148.4,380.7,148.4z"/>
	</g>
	<g>
		<path class="st176" d="M426.2,189.9c4.6-28.8-9.9-62.7-39.1-62.4c-36.2,0.3-72.4,7.7-106.3,22.2c-64,30.4-25.3,176.8,88.8,146.5
			c34.8-6.2,71.9,4.3,98.8,31.4c41.6,42.1,44.1,108.7,6.3,153.1c7.4,1.4,20.4-1.8,40.8-14.5c16.1-10.1,34.2-0.1,40.1,16.8
			c5.4,15.5-1.6,29-8.7,42.6c-3.9,7.5-7.8,14.9-9.6,22.7c-5.2,22.6,0.5,46,24.9,52.5c10.7,2.8,23.6-1.9,36.7-10.3
			c48.8-57.1,71.1-129.4,66.8-200.2c-1.3-21.5-25.5-31.8-46.3-26.2c-12.9,3.5-26.5,5.3-40.4,5.3c-85.5,0-154.7-69.3-154.7-154.7
			C424.2,206.3,424.9,198,426.2,189.9z"/>
	</g>
	<defs>
		<filter id="Adobe_OpacityMaskFilter" filterUnits="userSpaceOnUse" x="229.1" y="106.6" width="458" height="515.8">
			<feColorMatrix  type="matrix" values="1 0 0 0 0  0 1 0 0 0  0 0 1 0 0  0 0 0 1 0"/>
		</filter>
	</defs>
	<mask maskUnits="userSpaceOnUse" x="229.1" y="106.6" width="458" height="515.8" id="path-4-inside-1_1_">
		<path class="st177" d="M426.2,189.9c4.6-28.8-9.9-62.7-39.1-62.4c-36.2,0.3-72.4,7.7-106.3,22.2c-64,30.4-25.3,176.8,88.8,146.5
			c34.8-6.2,71.9,4.3,98.8,31.4c41.6,42.1,44.1,108.7,6.3,153.1c7.4,1.4,20.4-1.8,40.8-14.5c16.1-10.1,34.2-0.1,40.1,16.8
			c5.4,15.5-1.6,29-8.7,42.6c-3.9,7.5-7.8,14.9-9.6,22.7c-5.2,22.6,0.5,46,24.9,52.5c10.7,2.8,23.6-1.9,36.7-10.3
			c48.8-57.1,71.1-129.4,66.8-200.2c-1.3-21.5-25.5-31.8-46.3-26.2c-12.9,3.5-26.5,5.3-40.4,5.3c-85.5,0-154.7-69.3-154.7-154.7
			C424.2,206.3,424.9,198,426.2,189.9z"/>
	</mask>
	<g class="st178">
		<path class="st176" d="M280.8,149.7l-8.2-19.2l-0.4,0.2l-0.4,0.2L280.8,149.7z M369.5,296.2l-3.6-20.5l-0.9,0.2l-0.8,0.2
			L369.5,296.2z M468.3,327.6l14.8-14.7l0,0L468.3,327.6z M474.6,480.7l-15.9-13.5l-23.4,27.5l35.5,6.5L474.6,480.7z M515.4,466.1
			l-11.1-17.7l0,0L515.4,466.1z M555.6,483l-19.7,6.9l0,0L555.6,483z M546.9,525.5l18.5,9.6l0,0L546.9,525.5z M537.3,548.2
			l-20.3-4.7l0,0L537.3,548.2z M562.2,600.7l-5.3,20.2l0.1,0L562.2,600.7z M598.9,590.5l11.2,17.6l2.6-1.7l2-2.4L598.9,590.5z
			 M665.7,390.2l-20.8,1.3L665.7,390.2z M619.4,364.1l-5.4-20.1L619.4,364.1z M387.1,127.5l-0.2-20.9L387.1,127.5z M426.2,189.9
			l-20.6-3.3L426.2,189.9z M386.9,106.6c-38.9,0.3-77.8,8.3-114.3,23.9l16.4,38.4c31.3-13.4,64.8-20.3,98.2-20.5L386.9,106.6z
			 M271.8,130.8c-23.3,11-36.1,32.3-40.7,54.6c-4.5,22.2-1.4,46.7,8.1,68.6c9.6,21.9,26.1,42.3,49.5,54.7
			c23.8,12.7,53,16.4,86.1,7.6L364.2,276c-23.9,6.4-42.2,3.1-55.8-4.1c-13.9-7.4-24.5-19.9-30.9-34.6c-6.4-14.8-8.1-30.6-5.5-43.5
			c2.6-12.7,8.9-21.1,17.7-25.3L271.8,130.8z M373.2,316.7c28.3-5,58.4,3.5,80.3,25.5l29.6-29.4c-31.9-32.1-75.9-44.6-117.2-37.2
			L373.2,316.7z M453.5,342.2c34.1,34.5,36,88.8,5.3,124.9l31.8,27c44.8-52.7,41.8-131.5-7.4-181.3L453.5,342.2z M470.9,501.2
			c8.4,1.5,17.2,0.1,25.8-2.7c8.8-2.9,18.7-7.7,29.8-14.7l-22.2-35.4c-9.2,5.8-16,8.9-20.7,10.4c-4.9,1.6-6.2,1.1-5.3,1.3
			L470.9,501.2z M526.5,483.8c1.1-0.7,1.9-0.8,2.3-0.9c0.4,0,1,0.1,1.8,0.4c1.7,0.8,4,2.9,5.3,6.5l39.4-13.8
			c-4.7-13.4-14.4-24.7-27.2-30.6c-13.4-6.1-29.4-6-43.7,2.9L526.5,483.8z M535.9,489.9c2,5.6,0.4,10.9-7.5,26l37,19.3
			c6.3-12,18.8-33.8,9.9-59.1L535.9,489.9z M528.4,515.9c-3.6,7-8.9,16.8-11.4,27.6l40.6,9.4c1.1-4.8,3.6-9.8,7.8-17.8L528.4,515.9z
			 M517,543.5c-3.3,14.1-3.6,30.3,2.3,44.8c6.3,15.5,18.9,27.6,37.6,32.5l10.7-40.3c-5.7-1.5-8.1-4.3-9.6-7.8
			c-1.8-4.4-2.3-11.3-0.4-19.8L517,543.5z M557,620.9c19.7,5.1,39.2-3.9,53.2-12.8l-22.4-35.2c-12.3,7.8-18.5,8.1-20.2,7.7
			L557,620.9z M614.8,604c52.5-61.4,76.4-139,71.8-215.1l-41.7,2.5c4,65.7-16.7,132.6-61.8,185.4L614.8,604z M614,343.9
			c-11.1,3-22.9,4.6-35,4.6v41.7c15.8,0,31.2-2.1,45.9-6.1L614,343.9z M579,348.5c-73.9,0-133.9-59.9-133.9-133.9h-41.7
			c0,97,78.6,175.6,175.6,175.6V348.5z M445.1,214.6c0-7.2,0.6-14.4,1.7-21.5l-41.2-6.6c-1.5,9.2-2.2,18.6-2.2,28H445.1z M686.5,389
			c-1.2-19.4-13-33.2-27.1-40.5c-13.7-7.1-30.3-8.6-45.5-4.5l10.9,40.3c5.6-1.5,11.5-0.7,15.4,1.3c3.5,1.8,4.5,3.9,4.6,6L686.5,389z
			 M387.2,148.3c5.2,0,9.9,2.5,13.9,9.6c4.2,7.6,6.1,18.4,4.5,28.7l41.2,6.6c3-18.6-0.1-39.1-9.3-55.6c-9.4-16.9-26.6-31.2-50.6-31
			L387.2,148.3z"/>
	</g>
	<g>
		<circle class="st176" cx="187.8" cy="345" r="13.9"/>
	</g>
	<g>
		<circle class="st176" cx="389.4" cy="588.5" r="13.9"/>
	</g>
	<g>
		<circle class="st176" cx="304.3" cy="600.6" r="22.6"/>
	</g>
</g>
</svg>
