<svg width="36" height="36" viewBox="0 0 36 36" fill="none" xmlns="http://www.w3.org/2000/svg">
<path d="M18 26.9062C22.9188 26.9062 26.9062 22.9188 26.9062 18C26.9062 13.0812 22.9188 9.09375 18 9.09375C13.0812 9.09375 9.09375 13.0812 9.09375 18C9.09375 22.9188 13.0812 26.9062 18 26.9062Z" fill="#FFD36B"/>
<path d="M18 6.71875C17.8425 6.71875 17.6915 6.65619 17.5802 6.54484C17.4688 6.4335 17.4062 6.28247 17.4062 6.125V0.78125C17.4062 0.623778 17.4688 0.472755 17.5802 0.361405C17.6915 0.250056 17.8425 0.1875 18 0.1875C18.1575 0.1875 18.3085 0.250056 18.4198 0.361405C18.5312 0.472755 18.5938 0.623778 18.5938 0.78125V6.125C18.5938 6.28247 18.5312 6.4335 18.4198 6.54484C18.3085 6.65619 18.1575 6.71875 18 6.71875Z" fill="#FFE78F"/>
<path d="M9.60283 10.1968C9.52485 10.1969 9.44761 10.1815 9.37557 10.1517C9.30353 10.1218 9.2381 10.078 9.18305 10.0228L6.66425 7.50374C6.60796 7.44887 6.56314 7.38337 6.53237 7.31103C6.5016 7.2387 6.4855 7.16098 6.485 7.08238C6.4845 7.00377 6.49961 6.92585 6.52946 6.85313C6.55932 6.78042 6.60331 6.71435 6.65889 6.65877C6.71447 6.60319 6.78054 6.55919 6.85326 6.52934C6.92597 6.49949 7.00389 6.48438 7.0825 6.48488C7.1611 6.48537 7.23882 6.50147 7.31116 6.53224C7.38349 6.56301 7.44899 6.60784 7.50387 6.66412L10.0227 9.18323C10.1057 9.26627 10.1622 9.37206 10.1851 9.48722C10.208 9.60239 10.1962 9.72176 10.1513 9.83024C10.1064 9.93872 10.0303 10.0314 9.93266 10.0967C9.83503 10.1619 9.72025 10.1967 9.60283 10.1968Z" fill="#FFE78F"/>
<path d="M6.125 18.5938H0.78125C0.623778 18.5938 0.472755 18.5312 0.361405 18.4198C0.250056 18.3085 0.1875 18.1575 0.1875 18C0.1875 17.8425 0.250056 17.6915 0.361405 17.5802C0.472755 17.4688 0.623778 17.4062 0.78125 17.4062H6.125C6.28247 17.4062 6.4335 17.4688 6.54484 17.5802C6.65619 17.6915 6.71875 17.8425 6.71875 18C6.71875 18.1575 6.65619 18.3085 6.54484 18.4198C6.4335 18.5312 6.28247 18.5938 6.125 18.5938Z" fill="#FFE78F"/>
<path d="M7.08404 29.5096C6.96661 29.5096 6.85183 29.4748 6.7542 29.4095C6.65657 29.3443 6.58047 29.2516 6.53554 29.1431C6.49061 29.0346 6.47886 28.9152 6.50177 28.8C6.52468 28.6849 6.58123 28.5791 6.66426 28.496L9.18283 25.977C9.23764 25.9205 9.30315 25.8754 9.37554 25.8445C9.44793 25.8135 9.52576 25.7972 9.60449 25.7966C9.68322 25.796 9.76128 25.8111 9.83413 25.841C9.90699 25.8708 9.97318 25.9149 10.0289 25.9705C10.0845 26.0262 10.1286 26.0924 10.1584 26.1652C10.1883 26.2381 10.2034 26.3161 10.2028 26.3949C10.2022 26.4736 10.1859 26.5514 10.155 26.6238C10.124 26.6962 10.079 26.7617 10.0224 26.8165L7.50364 29.3357C7.4486 29.3909 7.3832 29.4346 7.31119 29.4645C7.23919 29.4943 7.16199 29.5097 7.08404 29.5096Z" fill="#FFE78F"/>
<path d="M18 35.8125C17.8425 35.8125 17.6915 35.7499 17.5802 35.6386C17.4688 35.5272 17.4062 35.3762 17.4062 35.2188V29.875C17.4062 29.7175 17.4688 29.5665 17.5802 29.4552C17.6915 29.3438 17.8425 29.2812 18 29.2812C18.1575 29.2812 18.3085 29.3438 18.4198 29.4552C18.5312 29.5665 18.5938 29.7175 18.5938 29.875V35.2188C18.5938 35.3762 18.5312 35.5272 18.4198 35.6386C18.3085 35.7499 18.1575 35.8125 18 35.8125Z" fill="#FFE78F"/>
<path d="M28.916 29.5096C28.838 29.5097 28.7607 29.4944 28.6887 29.4645C28.6166 29.4347 28.5512 29.3909 28.4961 29.3357L25.9773 26.8165C25.9208 26.7617 25.8758 26.6962 25.8448 26.6238C25.8139 26.5514 25.7976 26.4736 25.797 26.3949C25.7964 26.3161 25.8115 26.2381 25.8413 26.1652C25.8712 26.0924 25.9152 26.0262 25.9709 25.9705C26.0266 25.9149 26.0928 25.8708 26.1656 25.841C26.2385 25.8111 26.3166 25.796 26.3953 25.7966C26.474 25.7972 26.5518 25.8135 26.6242 25.8445C26.6966 25.8754 26.7621 25.9205 26.8169 25.977L29.3358 28.496C29.4188 28.5791 29.4753 28.6849 29.4982 28.8C29.5212 28.9152 29.5094 29.0346 29.4645 29.1431C29.4195 29.2516 29.3434 29.3443 29.2458 29.4095C29.1482 29.4748 29.0334 29.5096 28.916 29.5096Z" fill="#FFE78F"/>
<path d="M35.2188 18.5938H29.875C29.7175 18.5938 29.5665 18.5312 29.4552 18.4198C29.3438 18.3085 29.2812 18.1575 29.2812 18C29.2812 17.8425 29.3438 17.6915 29.4552 17.5802C29.5665 17.4688 29.7175 17.4062 29.875 17.4062H35.2188C35.3762 17.4062 35.5272 17.4688 35.6386 17.5802C35.7499 17.6915 35.8125 17.8425 35.8125 18C35.8125 18.1575 35.7499 18.3085 35.6386 18.4198C35.5272 18.5312 35.3762 18.5938 35.2188 18.5938Z" fill="#FFE78F"/>
<path d="M26.3972 10.1969C26.2797 10.1968 26.165 10.162 26.0673 10.0968C25.9697 10.0315 25.8936 9.93882 25.8487 9.83034C25.8037 9.72186 25.792 9.60249 25.8149 9.48732C25.8378 9.37216 25.8943 9.26637 25.9773 9.18333L28.4961 6.66422C28.6079 6.5552 28.7582 6.49463 28.9144 6.49562C29.0705 6.49661 29.22 6.55908 29.3305 6.66951C29.4409 6.77994 29.5034 6.92943 29.5043 7.08559C29.5053 7.24176 29.4448 7.39203 29.3357 7.50385L26.8172 10.0229C26.7621 10.0782 26.6966 10.122 26.6245 10.1518C26.5525 10.1817 26.4752 10.197 26.3972 10.1969Z" fill="#FFE78F"/>
</svg>
