<svg width="9" height="9" viewBox="0 0 9 9" fill="none" xmlns="http://www.w3.org/2000/svg">
<path d="M4.5 0C2.01469 0 0 2.01469 0 4.5C0 6.98531 2.01469 9 4.5 9C6.98531 9 9 6.98531 9 4.5C9 2.01469 6.98531 0 4.5 0ZM4.73831 6.58856C4.64813 6.67781 4.5225 6.72225 4.36125 6.72225C4.19644 6.72225 4.06894 6.67894 3.97875 6.59156C3.88856 6.504 3.84319 6.381 3.84319 6.222C3.84319 6.05719 3.88744 5.93269 3.97575 5.84812C4.06406 5.76394 4.1925 5.72175 4.36125 5.72175C4.52419 5.72175 4.65019 5.76469 4.73981 5.85094C4.82906 5.93738 4.87369 6.06094 4.87369 6.222C4.87369 6.37687 4.82869 6.49894 4.73831 6.58856ZM5.70956 3.90544C5.6115 4.06238 5.42494 4.239 5.15044 4.43531C4.962 4.57463 4.84275 4.68056 4.79306 4.75313C4.74281 4.82606 4.71806 4.92112 4.71806 5.03869V5.21513H3.93825V4.99725C3.93825 4.809 3.97838 4.64494 4.059 4.50581C4.13944 4.3665 4.28663 4.21837 4.50038 4.06144C4.70644 3.91425 4.84219 3.79463 4.908 3.70237C4.97381 3.61013 5.00644 3.507 5.00644 3.39337C5.00644 3.26587 4.95937 3.16875 4.86525 3.102C4.77112 3.03525 4.63969 3.00187 4.47075 3.00187C4.17656 3.00187 3.84094 3.09806 3.46425 3.29044L3.14344 2.64581C3.58087 2.40056 4.04513 2.27794 4.53562 2.27794C4.93969 2.27794 5.26125 2.37506 5.49956 2.56931C5.73787 2.76356 5.85694 3.0225 5.85694 3.34631C5.85675 3.56212 5.80781 3.7485 5.70956 3.90544Z" fill="#B5B5B5"/>
</svg>
