<?xml version="1.0" encoding="utf-8"?>
<!-- Generator: Adobe Illustrator 25.3.1, SVG Export Plug-In . SVG Version: 6.00 Build 0)  -->
<svg version="1.1" id="Layer_1" xmlns="http://www.w3.org/2000/svg" xmlns:xlink="http://www.w3.org/1999/xlink" x="0px" y="0px"
	 viewBox="0 0 800 800" style="enable-background:new 0 0 800 800;" xml:space="preserve">
<style type="text/css">
	.st0{display:none;}
	.st1{display:inline;}
	.st2{fill:#F0B90B;stroke:#F0B90B;}
	.st3{display:inline;fill:#F3BA2F;}
	.st4{display:none;fill:#FFFFFF;}
	.st5{display:none;fill-rule:evenodd;clip-rule:evenodd;fill:#FFAE54;}
	.st6{display:none;fill:url(#SVGID_1_);stroke:#AC562A;stroke-width:19;}
	.st7{display:none;fill:#AC562A;}
	.st8{display:inline;fill-rule:evenodd;clip-rule:evenodd;fill:#F2F2F2;}
	.st9{fill-rule:evenodd;clip-rule:evenodd;fill:#2BBDF7;}
	.st10{fill-rule:evenodd;clip-rule:evenodd;fill:#2891F9;}
	.st11{fill-rule:evenodd;clip-rule:evenodd;fill:#2B6DEF;}
	.st12{fill-rule:evenodd;clip-rule:evenodd;fill:#E84142;}
	.st13{fill:#FFFFFF;}
</style>
<image style="display:none;overflow:visible;enable-background:new    ;" width="508" height="508" id="icon-round-512" xlink:href="BB204DC3546445E5.png"  transform="matrix(1.2418 0 0 1.2418 89.1463 80)">
</image>
<g id="Layer_2_1_" class="st0">
	<g id="Layer_1-2" class="st1">
		<path class="st2" d="M390.4,171.2l56.6,58L304.4,371.8l-56.6-56.6L390.4,171.2z"/>
		<path class="st2" d="M476.4,257.2l56.6,58L304.4,543.8l-56.6-56.6L476.4,257.2z"/>
		<path class="st2" d="M218.4,343.2l56.6,58l-56.6,56.6l-56.6-56.6L218.4,343.2z"/>
		<path class="st2" d="M562.4,343.2l56.6,58L390.4,629.8l-56.6-56.6L562.4,343.2z"/>
	</g>
</g>
<g class="st0">
	<path class="st3" d="M301.4,363.9l89.1-89.1l89.1,89.1l51.8-51.8L390.4,171.2L249.5,312.1L301.4,363.9 M161.1,400.5l51.8-51.8
		l51.8,51.8l-51.8,51.8L161.1,400.5z M301.4,437.1l89.1,89.1l89.1-89.1l51.8,51.8l0,0L390.4,629.8L249.5,488.9l-0.1-0.1L301.4,437.1
		 M516,400.5l51.8-51.8l51.8,51.8l-51.8,51.8L516,400.5z"/>
	<path class="st3" d="M443,400.5L443,400.5l-52.6-52.6l-38.9,38.9l0,0l-4.5,4.5l-9.2,9.2l-0.1,0.1l0.1,0.1l52.5,52.5L443,400.5
		L443,400.5L443,400.5"/>
</g>
<path class="st4" d="M514.6,398c3.7-1,7.4,1.4,8.3,5.1l6,24.7c0.9,3.7-1.3,7.4-5,8.3c-3.7,1-7.4-1.4-8.3-5.1l-6-24.7
	C508.7,402.7,511,398.9,514.6,398L514.6,398z M329.7,217.7c-2.1-3.3-1.1-7.5,1.9-9.6l21.1-13.9c3.2-2.1,7.4-1.1,9.5,2
	c2.1,3.3,1.1,7.5-1.9,9.6l-21.1,13.9C336,221.8,331.8,220.8,329.7,217.7z"/>
<path class="st5" d="M429.3,303.9c-24.4-5.5-50.5-1-72,13.6c32.3-10.8,69.4-3.3,95.1,22.6c36.1,36.5,36.1,96.1,0,132.6
	c-4.3,4.4-9.1,8.3-14.1,11.6c13.2-4.6,25.7-12,36.3-22.6c25.6-25.8,33-63.2,22.5-95.7C467.5,354.3,443.4,332,429.3,303.9z"/>
<radialGradient id="SVGID_1_" cx="-657.5416" cy="-78.0654" r="16.0119" gradientTransform="matrix(8.874709e-16 14.4935 -9.9626 6.100305e-16 -381.1752 9936.4463)" gradientUnits="userSpaceOnUse">
	<stop  offset="0.3335" style="stop-color:#F7B450"/>
	<stop  offset="0.6477" style="stop-color:#FFC977"/>
	<stop  offset="1" style="stop-color:#FF9900"/>
</radialGradient>
<path class="st6" d="M590.5,513.6L590.5,513.6c-58.6,108.3-193,147.9-300.1,88.8C183.4,543.2,143.9,407.4,202.6,299
	c38.6-71.3,110-112.9,184.9-116.1c9.9-0.4,17.6,4.8,23,14.1c5.5,9.5,7.9,22.6,6.6,34.9c-0.5,4.8-0.8,9.6-0.8,14.6
	c0,23.1,5.7,44.8,15.8,63.8c-46.5-17.6-100.1,1.7-124.6,46.9c-26.8,49.5-8.8,111.8,40.4,139c49.2,27.2,111,8.8,137.8-40.7v0
	c15-27.8,15.9-59.6,5.1-87c18.7,9.6,39.9,15,62.4,15c12.6,0,24.8-1.7,36.5-4.9c6.6-1.8,13.8-1,19.1,1.7c5.1,2.6,8.2,6.8,8.5,12.1
	C619.8,433.1,611.4,475.1,590.5,513.6z"/>
<path class="st7" d="M426.6,226c3.8-23.9-8.2-52-32.5-51.8c-30,0.2-60,6.4-88.1,18.4c-53.1,25.2-21,146.6,73.6,121.5
	c28.9-5.1,59.6,3.5,81.9,26c34.5,34.9,36.6,90.1,5.3,126.9c6.1,1.1,16.9-1.5,33.8-12.1c13.3-8.3,28.4-0.1,33.3,14
	c4.5,12.8-1.3,24-7.2,35.3c-3.2,6.2-6.5,12.4-8,18.8c-4.3,18.8,0.5,38.2,20.7,43.5c8.8,2.3,19.5-1.6,30.4-8.5
	c40.5-47.4,58.9-107.3,55.4-166c-1.1-17.8-21.2-26.4-38.4-21.7c-10.7,2.9-21.9,4.4-33.5,4.4c-70.9,0-128.3-57.4-128.3-128.3
	C424.9,239.6,425.5,232.7,426.6,226z"/>
<path class="st7" d="M306,192.7l-6.8-15.9l-0.3,0.1l-0.3,0.1L306,192.7z M379.6,314.1l-3-17l-0.7,0.1l-0.7,0.2L379.6,314.1z
	 M461.5,340.1l12.3-12.2l0,0L461.5,340.1z M466.7,467.1l-13.2-11.2l-19.4,22.8l29.5,5.4L466.7,467.1z M500.6,455l-9.2-14.7l0,0
	L500.6,455z M533.8,469l-16.3,5.7l0,0L533.8,469z M526.6,504.3l15.3,8l0,0L526.6,504.3z M518.7,523.1l-16.9-3.9v0L518.7,523.1z
	 M539.4,566.6l-4.4,16.7l0,0L539.4,566.6z M569.8,558.1l9.3,14.6l2.2-1.4l1.7-2L569.8,558.1z M625.2,392.1l-17.3,1L625.2,392.1z
	 M586.8,370.4l-4.5-16.7L586.8,370.4z M394.1,174.2l-0.1-17.3L394.1,174.2z M426.6,226l-17.1-2.7L426.6,226z M394,156.9
	c-32.3,0.3-64.5,6.9-94.8,19.8l13.6,31.8c26-11.1,53.7-16.8,81.4-17L394,156.9z M298.6,177c-19.3,9.1-29.9,26.7-33.7,45.3
	c-3.8,18.4-1.2,38.8,6.7,56.8c7.9,18.2,21.6,35,41,45.4c19.7,10.5,44,13.6,71.4,6.3l-8.9-33.4c-19.8,5.3-35,2.6-46.3-3.4
	c-11.5-6.1-20.3-16.5-25.6-28.7c-5.3-12.3-6.7-25.4-4.5-36.1c2.1-10.5,7.4-17.5,14.7-21L298.6,177z M382.6,331.2
	c23.5-4.2,48.4,2.9,66.6,21.2l24.6-24.4c-26.4-26.6-62.9-36.9-97.2-30.9L382.6,331.2z M449.2,352.3c28.3,28.6,29.8,73.6,4.4,103.6
	l26.4,22.4c37.2-43.7,34.6-109.1-6.1-150.3L449.2,352.3z M463.6,484.1c7,1.3,14.3,0.1,21.4-2.2c7.3-2.4,15.5-6.4,24.7-12.2
	l-18.4-29.3c-7.7,4.8-13.3,7.4-17.2,8.6c-4,1.3-5.2,0.9-4.4,1.1L463.6,484.1z M509.7,469.7c1-0.6,1.6-0.7,1.9-0.7
	c0.4,0,0.9,0,1.5,0.3c1.4,0.7,3.3,2.4,4.4,5.4l32.7-11.4c-3.9-11.1-11.9-20.5-22.6-25.4c-11.1-5.1-24.4-5-36.2,2.4L509.7,469.7z
	 M517.5,474.7c1.6,4.7,0.3,9-6.2,21.6l30.7,16c5.2-10,15.5-28,8.2-49L517.5,474.7z M511.3,496.3c-3,5.8-7.4,13.9-9.5,22.9l33.7,7.8
	c0.9-3.9,3-8.2,6.4-14.8L511.3,496.3z M501.8,519.2c-2.7,11.7-3,25.1,1.9,37.2c5.2,12.8,15.7,22.9,31.1,27l8.8-33.5
	c-4.7-1.2-6.8-3.6-7.9-6.5c-1.5-3.7-1.9-9.4-0.3-16.4L501.8,519.2z M535,583.4c16.3,4.3,32.5-3.3,44.1-10.7l-18.6-29.2
	c-10.2,6.5-15.3,6.7-16.7,6.3L535,583.4z M582.9,569.4c43.5-50.9,63.3-115.3,59.5-178.3l-34.5,2.1c3.3,54.5-13.8,109.9-51.3,153.7
	L582.9,569.4z M582.3,353.7c-9.2,2.5-19,3.8-29,3.8v34.6c13.1,0,25.9-1.8,38-5L582.3,353.7z M553.2,357.5c-61.3,0-111-49.7-111-111
	h-34.6c0,80.4,65.2,145.6,145.6,145.6V357.5z M442.2,246.5c0-6,0.5-11.9,1.4-17.8l-34.2-5.4c-1.2,7.6-1.9,15.4-1.9,23.2H442.2z
	 M642.4,391.1c-1-16.1-10.8-27.5-22.5-33.6c-11.3-5.9-25.1-7.2-37.7-3.8l9,33.4c4.7-1.3,9.5-0.6,12.8,1.1c2.9,1.5,3.7,3.2,3.8,5
	L642.4,391.1z M394.3,191.5c4.3,0,8.2,2.1,11.5,8c3.5,6.3,5.1,15.3,3.7,23.8l34.2,5.4c2.5-15.4-0.1-32.4-7.7-46.1
	c-7.8-14-22-25.9-42-25.7L394.3,191.5z"/>
<circle class="st7" cx="228.9" cy="354.6" r="11.5"/>
<circle class="st7" cx="396.1" cy="556.5" r="11.5"/>
<circle class="st7" cx="325.5" cy="566.6" r="18.7"/>
<g class="st0">
	<circle class="st8" cx="400" cy="400" r="400"/>
	<g class="st1">
		<path class="st9" d="M333.3,360.6l66.8,148.3l99.5-57.4l0.1,0V336.7L333.3,360.6z"/>
		<path class="st10" d="M628.5,250.6l-62.1-23.4l-66.4-5.4v356.8l99.6,57.4l78.6-160.8l-49.6-155.5L628.5,250.6z"/>
		<path class="st9" d="M622.2,222l-23.1,57.4h0v356.7l99.6-57.4V222H622.2z"/>
		<path class="st11" d="M599.6,164.5L500,221.9l99.6,57.4l99.6-57.4L599.6,164.5z"/>
		<path class="st10" d="M400.2,394L400.2,394l-99.6-111.4l-199.2-60.7v356.7l99.6,57.4l28.5-197.4l71.1,12.9v-0.1l99.6,57.4
			L400.2,394L400.2,394z"/>
		<path class="st11" d="M201.1,164.5l-99.6,57.4l298.7,172.2l45.1-26l54.4-31.4L201.1,164.5z"/>
		<path class="st9" d="M201.1,394L201.1,394l0,241.9l99.6-57.4V451.4L201.1,394z"/>
	</g>
</g>
<g>
	<circle class="st12" cx="400" cy="400" r="400"/>
	<path class="st13" d="M541.1,410.4c13.9-23.9,36.2-23.9,50.1,0l86.3,151.5c13.9,23.9,2.5,43.5-25.2,43.5H478.4
		c-27.4,0-38.7-19.5-25.2-43.5L541.1,410.4z M374.2,118.7c13.9-23.9,35.9-23.9,49.8,0l19.2,34.6l45.4,79.7c11,22.7,11,49.4,0,72.1
		L336.4,568.8c-13.9,21.4-36.9,35-62.4,36.5H147.7c-27.7,0-39.1-19.2-25.2-43.5L374.2,118.7z"/>
</g>
</svg>
