<?xml version="1.0" encoding="utf-8"?>
<!-- Generator: Adobe Illustrator 25.3.1, SVG Export Plug-In . SVG Version: 6.00 Build 0)  -->
<svg version="1.1" id="Layer_1" xmlns="http://www.w3.org/2000/svg" xmlns:xlink="http://www.w3.org/1999/xlink" x="0px" y="0px"
	 viewBox="0 0 800 800" style="enable-background:new 0 0 800 800;" xml:space="preserve">
<style type="text/css">
	.st0{display:none;}
	.st1{display:inline;}
	.st2{fill:#F0B90B;stroke:#F0B90B;}
	.st3{fill:#F3BA2F;}
	.st4{display:none;fill:#FFFFFF;}
	.st5{display:none;fill-rule:evenodd;clip-rule:evenodd;fill:#FFAE54;}
	.st6{display:none;fill:url(#SVGID_1_);stroke:#AC562A;stroke-width:19;}
	.st7{display:none;fill:#AC562A;}
	.st8{display:inline;fill:#52B3F8;}
	.st9{display:inline;fill:#285FDE;}
	.st10{display:none;fill:url(#SVGID_2_);}
	.st11{display:none;fill-rule:evenodd;clip-rule:evenodd;fill:#606063;}
	.st12{display:none;fill:#BDBDBD;}
	.st13{display:none;fill:#F9F8F9;}
	.st14{display:none;fill-rule:evenodd;clip-rule:evenodd;fill:#5C330E;}
	.st15{display:none;fill:#F7DC99;}
	.st16{display:none;fill:#C68A59;}
	.st17{display:none;fill-rule:evenodd;clip-rule:evenodd;fill:url(#SVGID_3_);}
	.st18{display:none;fill:#967424;}
	.st19{display:none;fill:#E6BA41;}
</style>
<circle cx="400" cy="400" r="400"/>
<g id="Layer_2_1_" class="st0">
	<g id="Layer_1-2" class="st1">
		<path class="st2" d="M395.2,171l56.6,58L309.2,371.6L252.6,315L395.2,171z"/>
		<path class="st2" d="M481.2,257l56.6,58L309.2,543.6L252.6,487L481.2,257z"/>
		<path class="st2" d="M223.2,342.9l56.6,58l-56.6,56.6l-56.6-56.6L223.2,342.9z"/>
		<path class="st2" d="M567.2,342.9l56.6,58L395.2,629.5l-56.6-56.6L567.2,342.9z"/>
	</g>
</g>
<g>
	<path class="st3" d="M288.7,354.3L400,242.9l111.4,111.4l64.8-64.8L400,113.4L223.9,289.5L288.7,354.3 M113.4,400l64.8-64.8
		L243,400l-64.8,64.8L113.4,400z M288.7,445.7L400,557l111.4-111.4l64.8,64.7l0,0L400,686.6L223.9,510.5l-0.1-0.1L288.7,445.7
		 M557.1,400l64.8-64.8l64.8,64.8l-64.8,64.8L557.1,400z"/>
	<path class="st3" d="M465.7,400L465.7,400L400,334.2l-48.6,48.6l0,0l-5.6,5.6l-11.5,11.5l-0.1,0.1l0.1,0.1l65.7,65.7L465.7,400
		L465.7,400L465.7,400"/>
</g>
<path class="st4" d="M514.6,398c3.7-1,7.4,1.4,8.3,5.1l6,24.7c0.9,3.7-1.3,7.4-5,8.3c-3.7,1-7.4-1.4-8.3-5.1l-6-24.7
	C508.7,402.7,511,398.9,514.6,398L514.6,398z M329.7,217.7c-2.1-3.3-1.1-7.5,1.9-9.6l21.1-13.9c3.2-2.1,7.4-1.1,9.5,2
	c2.1,3.3,1.1,7.5-1.9,9.6l-21.1,13.9C336,221.8,331.8,220.8,329.7,217.7z"/>
<path class="st5" d="M429.3,303.9c-24.4-5.5-50.5-1-72,13.6c32.3-10.8,69.4-3.3,95.1,22.6c36.1,36.5,36.1,96.1,0,132.6
	c-4.3,4.4-9.1,8.3-14.1,11.6c13.2-4.6,25.7-12,36.3-22.6c25.6-25.8,33-63.2,22.5-95.7C467.5,354.3,443.4,332,429.3,303.9z"/>
<radialGradient id="SVGID_1_" cx="-749.7126" cy="989.0031" r="16.0122" gradientTransform="matrix(8.874709e-16 14.4935 9.9626 -6.100305e-16 -9456.4775 11272.3027)" gradientUnits="userSpaceOnUse">
	<stop  offset="0.3335" style="stop-color:#F7B450"/>
	<stop  offset="0.6477" style="stop-color:#FFC977"/>
	<stop  offset="1" style="stop-color:#FF9900"/>
</radialGradient>
<path class="st6" d="M590.5,513.6L590.5,513.6c-58.6,108.3-193,147.9-300.1,88.8c-107-59.2-146.5-195-87.8-303.4
	c38.6-71.3,110-112.9,184.9-116.1c9.9-0.4,17.6,4.8,23,14.1c5.5,9.5,7.9,22.6,6.6,34.9c-0.5,4.8-0.8,9.6-0.8,14.6
	c0,23.1,5.7,44.8,15.8,63.8c-46.5-17.6-100.1,1.7-124.6,46.9c-26.8,49.5-8.8,111.8,40.4,139s111,8.8,137.8-40.7l0,0
	c15-27.8,15.9-59.6,5.1-87c18.7,9.6,39.9,15,62.4,15c12.6,0,24.8-1.7,36.5-4.9c6.6-1.8,13.8-1,19.1,1.7c5.1,2.6,8.2,6.8,8.5,12.1
	C619.8,433.1,611.4,475.1,590.5,513.6z"/>
<path class="st7" d="M426.6,226c3.8-23.9-8.2-52-32.5-51.8c-30,0.2-60,6.4-88.1,18.4c-53.1,25.2-21,146.6,73.6,121.5
	c28.9-5.1,59.6,3.5,81.9,26c34.5,34.9,36.6,90.1,5.3,126.9c6.1,1.1,16.9-1.5,33.8-12.1c13.3-8.3,28.4-0.1,33.3,14
	c4.5,12.8-1.3,24-7.2,35.3c-3.2,6.2-6.5,12.4-8,18.8c-4.3,18.8,0.5,38.2,20.7,43.5c8.8,2.3,19.5-1.6,30.4-8.5
	c40.5-47.4,58.9-107.3,55.4-166c-1.1-17.8-21.2-26.4-38.4-21.7c-10.7,2.9-21.9,4.4-33.5,4.4c-70.9,0-128.3-57.4-128.3-128.3
	C424.9,239.6,425.5,232.7,426.6,226z"/>
<path class="st7" d="M306,192.7l-6.8-15.9l-0.3,0.1l-0.3,0.1L306,192.7z M379.6,314.1l-3-17l-0.7,0.1l-0.7,0.2L379.6,314.1z
	 M461.5,340.1l12.3-12.2l0,0L461.5,340.1z M466.7,467.1l-13.2-11.2l-19.4,22.8l29.5,5.4L466.7,467.1z M500.6,455l-9.2-14.7l0,0
	L500.6,455z M533.8,469l-16.3,5.7l0,0L533.8,469z M526.6,504.3l15.3,8l0,0L526.6,504.3z M518.7,523.1l-16.9-3.9l0,0L518.7,523.1z
	 M539.4,566.6l-4.4,16.7l0,0L539.4,566.6z M569.8,558.1l9.3,14.6l2.2-1.4l1.7-2L569.8,558.1z M625.2,392.1l-17.3,1L625.2,392.1z
	 M586.8,370.4l-4.5-16.7L586.8,370.4z M394.1,174.2l-0.1-17.3L394.1,174.2z M426.6,226l-17.1-2.7L426.6,226z M394,156.9
	c-32.3,0.3-64.5,6.9-94.8,19.8l13.6,31.8c26-11.1,53.7-16.8,81.4-17L394,156.9z M298.6,177c-19.3,9.1-29.9,26.7-33.7,45.3
	c-3.8,18.4-1.2,38.8,6.7,56.8c7.9,18.2,21.6,35,41,45.4c19.7,10.5,44,13.6,71.4,6.3l-8.9-33.4c-19.8,5.3-35,2.6-46.3-3.4
	c-11.5-6.1-20.3-16.5-25.6-28.7c-5.3-12.3-6.7-25.4-4.5-36.1c2.1-10.5,7.4-17.5,14.7-21L298.6,177z M382.6,331.2
	c23.5-4.2,48.4,2.9,66.6,21.2l24.6-24.4c-26.4-26.6-62.9-36.9-97.2-30.9L382.6,331.2z M449.2,352.3c28.3,28.6,29.8,73.6,4.4,103.6
	l26.4,22.4c37.2-43.7,34.6-109.1-6.1-150.3L449.2,352.3z M463.6,484.1c7,1.3,14.3,0.1,21.4-2.2c7.3-2.4,15.5-6.4,24.7-12.2
	l-18.4-29.3c-7.7,4.8-13.3,7.4-17.2,8.6c-4,1.3-5.2,0.9-4.4,1.1L463.6,484.1z M509.7,469.7c1-0.6,1.6-0.7,1.9-0.7
	c0.4,0,0.9,0,1.5,0.3c1.4,0.7,3.3,2.4,4.4,5.4l32.7-11.4c-3.9-11.1-11.9-20.5-22.6-25.4c-11.1-5.1-24.4-5-36.2,2.4L509.7,469.7z
	 M517.5,474.7c1.6,4.7,0.3,9-6.2,21.6l30.7,16c5.2-10,15.5-28,8.2-49L517.5,474.7z M511.3,496.3c-3,5.8-7.4,13.9-9.5,22.9l33.7,7.8
	c0.9-3.9,3-8.2,6.4-14.8L511.3,496.3z M501.8,519.2c-2.7,11.7-3,25.1,1.9,37.2c5.2,12.8,15.7,22.9,31.1,27l8.8-33.5
	c-4.7-1.2-6.8-3.6-7.9-6.5c-1.5-3.7-1.9-9.4-0.3-16.4L501.8,519.2z M535,583.4c16.3,4.3,32.5-3.3,44.1-10.7l-18.6-29.2
	c-10.2,6.5-15.3,6.7-16.7,6.3L535,583.4z M582.9,569.4c43.5-50.9,63.3-115.3,59.5-178.3l-34.5,2.1c3.3,54.5-13.8,109.9-51.3,153.7
	L582.9,569.4z M582.3,353.7c-9.2,2.5-19,3.8-29,3.8v34.6c13.1,0,25.9-1.8,38-5L582.3,353.7z M553.2,357.5c-61.3,0-111-49.7-111-111
	h-34.6c0,80.4,65.2,145.6,145.6,145.6V357.5z M442.2,246.5c0-6,0.5-11.9,1.4-17.8l-34.2-5.4c-1.2,7.6-1.9,15.4-1.9,23.2H442.2z
	 M642.4,391.1c-1-16.1-10.8-27.5-22.5-33.6c-11.3-5.9-25.1-7.2-37.7-3.8l9,33.4c4.7-1.3,9.5-0.6,12.8,1.1c2.9,1.5,3.7,3.2,3.8,5
	L642.4,391.1z M394.3,191.5c4.3,0,8.2,2.1,11.5,8c3.5,6.3,5.1,15.3,3.7,23.8l34.2,5.4c2.5-15.4-0.1-32.4-7.7-46.1
	c-7.8-14-22-25.9-42-25.7L394.3,191.5z"/>
<circle class="st7" cx="228.9" cy="354.6" r="11.5"/>
<circle class="st7" cx="396.1" cy="556.5" r="11.5"/>
<circle class="st7" cx="325.5" cy="566.6" r="18.7"/>
<g class="st0">
	<path class="st8" d="M497.3,317.5L334.6,485.3h-68.7l-0.1-0.2c-0.1,0-0.1,0-0.2,0c-1.2,0.1-2.5,0.1-3.7,0.1
		c-19.3,0-35.9-11.2-43.7-27.5l-1-2.2c-2.4-5.8-3.8-12.1-3.8-18.8c0-13.7,5.7-26.1,14.9-34.9h-0.1l220.1-226.9
		c5.9-6.1,16.1-4.3,19.6,3.4l38.7,85.8C514.8,282.1,511.1,303.3,497.3,317.5"/>
	<path class="st8" d="M528.3,623.1H323.9c-19,0-36.2-11.1-44-28.4l-61.8-136.9c7.8,16.2,24.5,27.5,43.8,27.5c1.2,0,2.5,0,3.7-0.1
		l0.3,0.1h203.4c9.5,0,18.1,5.6,22,14.2l48.1,106.6C542.9,614.1,537.1,623.1,528.3,623.1"/>
	<path class="st9" d="M278.2,590.9l-60.1-133.1c7.8,16.3,24.5,27.5,43.8,27.5c1.2,0,2.5-0.1,3.7-0.1l0.2,0.1h68.7l-43.2,44.6
		l-4.1,4.3l-0.9,0.9c-7.7,9.3-12.2,21.2-12.2,34.2C274,576.9,275.4,584.3,278.2,590.9"/>
</g>
<linearGradient id="SVGID_2_" gradientUnits="userSpaceOnUse" x1="400" y1="524" x2="400" y2="-116" gradientTransform="matrix(1 0 0 -1 0 604)">
	<stop  offset="0" style="stop-color:#7BD6DB"/>
	<stop  offset="0.762" style="stop-color:#60C3D2"/>
</linearGradient>
<circle class="st10" cx="400" cy="400" r="320"/>
<path class="st11" d="M192.1,435.2c-0.1,1.2-0.1,2.4-0.1,3.6c0,4.5,0.4,9,1.2,13.5H192v7c0,3.4,0.2,6.8,0.7,10.1
	c8.5,65,98,116.2,207.3,116.2s198.8-51.2,207.3-116.2c0.4-3.3,0.7-6.7,0.7-10.1v-7h-1.2c0.8-4.4,1.2-8.9,1.2-13.5
	c0-1.2,0-2.4-0.1-3.6c-3.1-68.1-95-122.7-207.9-122.7S195.3,367.1,192.1,435.2z M175.1,435.2c1.6-41.5,29.8-76.4,69-100.3
	c40.7-24.7,95.9-39.5,155.9-39.5s115.2,14.7,155.9,39.5c39.3,23.9,67.5,58.7,69,100.3h0.1v24c0,43.1-28.7,79.3-69.1,103.9
	c-40.7,24.7-95.9,39.5-155.9,39.5S284.8,587.8,244.1,563c-40.4-24.5-69.1-60.7-69.1-103.9L175.1,435.2L175.1,435.2L175.1,435.2z"/>
<path class="st12" d="M607.9,459.2c0,69.7-93.1,126.2-207.9,126.2s-207.9-56.5-207.9-126.2v-20H608L607.9,459.2L607.9,459.2z"/>
<path class="st13" d="M607.9,438.8c0,69.7-93.1,126.2-207.9,126.2s-207.9-56.5-207.9-126.2S285.2,312.5,400,312.5
	S607.9,369,607.9,438.8z"/>
<path class="st14" d="M224.1,403.1c0,0.1,0,0.2,0,0.2c0,5.7,0.8,11.4,2.4,16.8h-2.4v7.4c0,3.3,0.3,6.5,0.8,9.7
	c7.9,48,74.2,85.5,154.9,85.5s147-37.5,154.9-85.5c0.5-3.2,0.8-6.4,0.8-9.7v-7.4H533c1.5-5.3,2.4-10.8,2.4-16.4c0-0.2,0-0.3,0-0.5
	c0-0.1,0-0.2,0-0.2c-0.2-52.4-69.8-94.9-155.7-94.9S224.3,350.6,224.1,403.1z M207,403.1L207,403.1v24.5c0,34.5,22.8,62.9,53.8,81.8
	c31.3,19.1,73.4,30.4,119,30.4s87.7-11.3,119-30.4c31-18.9,53.8-47.4,53.8-81.8v-23.7c0-0.2,0-0.4,0-0.5c0-34.5-22.8-62.9-53.8-81.8
	c-31.3-19.1-73.4-30.4-119-30.4s-87.7,11.3-119,30.4C229.9,340.4,207.1,368.7,207,403.1z"/>
<path class="st15" d="M535.4,427.5c0,52.5-69.7,95.1-155.7,95.1S224,480,224,427.5v-22.3h311.4V427.5L535.4,427.5z"/>
<path class="st16" d="M535.4,403.3c0,52.5-69.7,95.1-155.7,95.1S224,455.8,224,403.3s69.7-95.1,155.7-95.1
	C465.7,308.2,535.4,350.8,535.4,403.3z"/>
<path class="st14" d="M271,351.9c0,0.1,0,0.2,0,0.2c0,5.7,0.8,11.4,2.4,16.8H271v7.4c0,3.3,0.3,6.5,0.8,9.7
	c7.9,48,74.2,85.5,154.9,85.5s147-37.5,154.9-85.5c0.5-3.2,0.8-6.4,0.8-9.7V369H580c1.5-5.3,2.4-10.8,2.4-16.4c0-0.2,0-0.3,0-0.5
	c0-0.1,0-0.2,0-0.2c-0.2-52.4-69.8-94.9-155.7-94.9S271.2,299.5,271,351.9z M253.9,351.9L253.9,351.9v24.5
	c0,34.5,22.8,62.9,53.8,81.8c31.3,19.1,73.4,30.4,119,30.4s87.7-11.3,119-30.4c31-18.9,53.8-47.4,53.8-81.8v-23.7c0-0.2,0-0.4,0-0.5
	c0-34.5-22.8-62.9-53.8-81.8c-31.3-19.1-73.4-30.4-119-30.4s-87.7,11.3-119,30.4C276.8,289.2,254,317.5,253.9,351.9z"/>
<path class="st15" d="M582.3,376.4c0,52.5-69.7,95.1-155.7,95.1s-155.7-42.6-155.7-95.1V354h311.4L582.3,376.4L582.3,376.4z"/>
<path class="st16" d="M582.3,352.1c0,52.5-69.7,95.1-155.7,95.1s-155.7-42.6-155.7-95.1S340.6,257,426.6,257
	S582.3,299.6,582.3,352.1z"/>
<path class="st14" d="M224.1,300.7c0,0.1,0,0.2,0,0.2c0,5.7,0.8,11.4,2.4,16.8h-2.4v7.4c0,3.3,0.3,6.5,0.8,9.7
	c7.9,48,74.2,85.5,154.9,85.5s147-37.5,154.9-85.5c0.5-3.2,0.8-6.4,0.8-9.7v-7.4H533c1.5-5.3,2.4-10.8,2.4-16.4c0-0.2,0-0.3,0-0.5
	c0-0.1,0-0.2,0-0.2c-0.2-52.4-69.8-94.9-155.7-94.9S224.3,248.3,224.1,300.7z M207,300.7L207,300.7v24.5c0,34.5,22.8,62.9,53.8,81.8
	c31.3,19.1,73.4,30.4,119,30.4s87.7-11.3,119-30.4c31-18.9,53.8-47.4,53.8-81.8v-23.7c0-0.2,0-0.4,0-0.5c0-34.5-22.8-62.9-53.8-81.8
	c-31.3-19.1-73.4-30.4-119-30.4s-87.7,11.3-119,30.4C229.9,238,207.1,266.4,207,300.7z"/>
<path class="st15" d="M535.4,325.2c0,52.5-69.7,95.1-155.7,95.1S224,377.7,224,325.2v-22.3h311.4V325.2L535.4,325.2z"/>
<path class="st16" d="M535.4,301c0,52.5-69.7,95.1-155.7,95.1S224,353.5,224,301c0-52.6,69.7-95.1,155.7-95.1
	C465.7,205.8,535.4,248.4,535.4,301z"/>
<linearGradient id="SVGID_3_" gradientUnits="userSpaceOnUse" x1="354.7" y1="352.8333" x2="354.7" y2="154.9733" gradientTransform="matrix(1 0 0 -1 0 604)">
	<stop  offset="0" style="stop-color:#934F1E"/>
	<stop  offset="0.37" style="stop-color:#743D13"/>
	<stop  offset="1" style="stop-color:#824519"/>
</linearGradient>
<path class="st17" d="M260.9,306.9c0,17.5,12.8,33.3,32.9,43.8l-13.9,24.1l0,0l0,0v61.1c0,8.1,6.5,14.6,14.6,14.6
	s14.6-6.5,14.6-14.6v-48.6l15-26c9.6,2,19.9,3.1,30.6,3.1c51.8,0,93.8-25.8,93.8-57.6s-42-57.6-93.8-57.6S260.9,275,260.9,306.9z"/>
<path class="st14" d="M293.7,350.7c-2.2-1.2-4.4-2.4-6.4-3.7c-16.4-10.4-26.5-24.5-26.5-40.1c0-31.8,42-57.6,93.8-57.6
	s93.8,25.8,93.8,57.6s-42,57.6-93.8,57.6c-10.7,0-21-1.1-30.6-3.1l-15,26V436c0,8.1-6.5,14.6-14.6,14.6s-14.6-6.5-14.6-14.6v-61.1
	L293.7,350.7z M264.9,375.1v60.8c0,16.3,13.2,29.5,29.5,29.5s29.5-13.2,29.5-29.5v-44.6l7.8-13.5c7.4,1,15,1.6,22.9,1.6
	c28.2,0,54.4-7,74.1-19.1c19.4-12,34.6-30.4,34.6-53.5s-15.1-41.5-34.6-53.5c-19.7-12.1-45.9-19.1-74.1-19.1s-54.4,7-74.1,19.1
	c-19.4,12-34.6,30.4-34.6,53.5c0,20.2,11.6,36.9,27.7,48.8l-6.6,11.5c-0.6,1.1-1.1,2.2-1.5,3.4C265,372.1,264.9,373.6,264.9,375.1z"
	/>
<path class="st18" d="M290.2,282.6c0,16.5,21,29.9,46.9,29.9s46.9-13.4,46.9-29.9s-21-29.9-46.9-29.9
	C311.2,252.7,290.2,266.1,290.2,282.6z"/>
<path class="st18" d="M290.2,269.8H384v12.8h-93.8V269.8L290.2,269.8z"/>
<path class="st19" d="M290.2,269.8c0,16.5,21,29.9,46.9,29.9s46.9-13.4,46.9-29.9s-21-29.9-46.9-29.9S290.2,253.3,290.2,269.8z"/>
<path class="st18" d="M319.3,266.2l13.2-8.4c2.8-1.8,6.4-1.8,9.2,0l13.2,8.4c2.6,1.7,2.6,5.5,0,7.2l-13.2,8.4
	c-2.8,1.8-6.4,1.8-9.2,0l-13.2-8.4C316.6,271.7,316.6,267.9,319.3,266.2z"/>
<path class="st14" d="M295.9,236.1c11.2-7.1,25.8-11.1,41.2-11.1s30,3.9,41.2,11.1c11,7,20.7,18.6,20.7,33.7v12.8
	c0,15.1-9.6,26.7-20.7,33.7c-11.2,7.1-25.8,11.1-41.2,11.1s-30-3.9-41.2-11.1c-11-7-20.7-18.6-20.7-33.7v-12.8
	C275.2,254.7,284.8,243.1,295.9,236.1z M337.1,239.9c-25.9,0-46.9,13.4-46.9,29.9v12.8c0,16.5,21,29.9,46.9,29.9
	s46.9-13.4,46.9-29.9v-12.8C384,253.3,363,239.9,337.1,239.9z"/>
</svg>
