<svg width="28" height="28" viewBox="0 0 28 28" fill="none" xmlns="http://www.w3.org/2000/svg">
<path d="M20.8375 19.9187C18.6936 19.7395 16.6172 19.0814 14.7616 17.9929C12.9059 16.9044 11.3182 15.4132 10.1155 13.6293C8.91289 11.8455 8.126 9.81443 7.81286 7.68595C7.49972 5.55748 7.66834 3.38585 8.30626 1.33122C8.34392 1.20914 8.34327 1.07846 8.30439 0.956769C8.26551 0.835077 8.19028 0.728222 8.08882 0.650594C7.98735 0.572966 7.86454 0.528294 7.73692 0.522595C7.60929 0.516896 7.48299 0.550443 7.37501 0.618718C5.46328 1.71986 3.83065 3.24626 2.60356 5.0797C1.37647 6.91314 0.587852 9.00441 0.298774 11.1916C0.00969629 13.3787 0.227919 15.6031 0.936541 17.6924C1.64516 19.7817 2.82517 21.6798 4.38518 23.2398C5.94519 24.7998 7.84333 25.9798 9.93261 26.6884C12.0219 27.3971 14.2462 27.6153 16.4334 27.3262C18.6206 27.0371 20.7118 26.2485 22.5453 25.0214C24.3787 23.7943 25.9051 22.1617 27.0063 20.25C27.0702 20.1421 27.1002 20.0175 27.0924 19.8924C27.0846 19.7672 27.0394 19.6473 26.9625 19.5482C26.8857 19.4492 26.7808 19.3755 26.6616 19.3368C26.5423 19.2981 26.4141 19.2961 26.2938 19.3312C24.5294 19.8747 22.6771 20.0741 20.8375 19.9187Z" fill="#EFCC00"/>
</svg>
