<svg width="55" height="77" viewBox="0 0 55 77" fill="none" xmlns="http://www.w3.org/2000/svg">
<path d="M47.7463 24.9358L20.3814 53.5189H8.83244H8.20662C6.66105 53.527 5.14506 53.0895 3.83554 52.2575C2.52601 51.4255 1.47692 50.2333 0.810692 48.8199L0.640024 48.4307C0.215348 47.4189 -0.00235983 46.3303 1.92906e-05 45.2308C-0.00228817 44.1198 0.21699 43.0197 0.644712 41.9967C1.07243 40.9737 1.69977 40.0489 2.48903 39.2778L39.4686 0.633658C39.6988 0.391966 39.9838 0.210973 40.2989 0.106415C40.6139 0.00185592 40.9493 -0.0230935 41.276 0.033746C41.6027 0.0905856 41.9108 0.227497 42.1733 0.432544C42.4359 0.637591 42.645 0.9045 42.7825 1.21017L49.2824 15.8261C49.9594 17.3251 50.175 18.996 49.901 20.621C49.627 22.2461 48.8761 23.7497 47.7463 24.9358Z" fill="#00B7FF"/>
<path d="M52.9661 77H18.5893C17.0307 77.0009 15.5051 76.5458 14.1956 75.6892C12.8861 74.8326 11.8486 73.6111 11.2076 72.1713L0.810669 48.8205C1.47581 50.2245 2.51915 51.4093 3.82023 52.2382C5.12132 53.0671 6.62713 53.5063 8.16393 53.5051H8.78974H42.9247C43.7054 53.5065 44.4692 53.7356 45.1249 54.165C45.7806 54.5944 46.3006 55.2059 46.6227 55.9266L54.7155 74.0884C54.8528 74.3944 54.9141 74.7298 54.8942 75.0653C54.8743 75.4008 54.7737 75.7263 54.6012 76.0134C54.4287 76.3005 54.1895 76.5405 53.9045 76.7125C53.6195 76.8844 53.2974 76.9831 52.9661 77Z" fill="#00B7FF"/>
<path d="M10.9089 71.5226L0.810669 48.8205C1.47307 50.2267 2.51575 51.4134 3.81746 52.2427C5.11916 53.072 6.62641 53.5097 8.16393 53.5051H20.3814L13.0993 61.1157L12.4024 61.8364L12.2601 61.995C11.2074 63.308 10.5203 64.8825 10.2702 66.5552C10.0202 68.228 10.2161 69.9381 10.8378 71.5082L10.9089 71.5226Z" fill="#0061E7"/>
</svg>
