<svg width="25" height="25" viewBox="0 0 25 25" fill="none" xmlns="http://www.w3.org/2000/svg">
<path d="M20 7C20 7 7.3015 7 5 7C3.462 7 2.5 8.5 2.5 9.5V20.192C2.5 21.467 3.533 22.5 4.808 22.5H20.192C21.4665 22.5 22.5 21.467 22.5 20.192V9.423C22.5 8.1495 21.2745 7 20 7Z" stroke="white" stroke-width="2" stroke-miterlimit="10" stroke-linecap="round" stroke-linejoin="round"/>
<path d="M18.5 5.5V3.829C18.5 2.1635 18.1405 1.683 16.074 2.228C14.556 2.6285 5.6735 5.091 5.6735 5.091C2.938 6.122 2.5205 6.9995 2.5205 8.999L2.5 10.2265" stroke="white" stroke-width="2" stroke-miterlimit="10" stroke-linejoin="round"/>
<path d="M19.251 16C18.5605 16 18 15.441 18 14.7505C18 14.06 18.5605 13.5 19.251 13.5C19.9395 13.5 20.5 14.06 20.5 14.7505C20.5 15.441 19.9395 16 19.251 16Z" fill="white"/>
</svg>
